M48
; DRILL file {KiCad 9.0.7-9.0.7~ubuntu22.04.1} date 2026-02-13T16:19:23-0500
; FORMAT={-:-/ absolute / metric / decimal}
; #@! TF.CreationDate,2026-02-13T16:19:23-05:00
; #@! TF.GenerationSoftware,Kicad,Pcbnew,9.0.7-9.0.7~ubuntu22.04.1
; #@! TF.FileFunction,MixedPlating,1,2
FMAT,2
METRIC
; #@! TA.AperFunction,Plated,PTH,ViaDrill
T1C0.300
; #@! TA.AperFunction,Plated,PTH,ComponentDrill
T2C0.400
; #@! TA.AperFunction,Plated,PTH,ComponentDrill
T3C0.600
; #@! TA.AperFunction,Plated,PTH,ComponentDrill
T4C0.650
; #@! TA.AperFunction,Plated,PTH,ComponentDrill
T5C1.000
; #@! TA.AperFunction,Plated,PTH,ComponentDrill
T6C3.200
%
G90
G05
T1
X156.25Y-121.5
X156.251Y-120.419
X156.5Y-125.5
X156.901Y-120.0
X157.324Y-126.324
X158.14Y-126.565
X161.75Y-92.75
X161.75Y-127.0
X162.0Y-71.75
X162.5Y-95.0
X163.25Y-128.25
X163.35Y-122.859
X163.504Y-95.564
X163.54Y-102.04
X163.6Y-100.312
X163.732Y-123.613
X164.398Y-110.458
X164.4Y-104.443
X165.0Y-103.25
X165.75Y-109.675
X166.75Y-113.0
X167.25Y-121.075
X168.0Y-108.0
X168.5Y-116.75
X169.15Y-114.459
X169.25Y-110.75
X169.5Y-120.25
T2
X169.965Y-98.625
X169.965Y-99.475
X169.965Y-100.325
X169.965Y-101.175
X169.965Y-102.025
X169.965Y-102.875
X169.965Y-103.725
X169.965Y-104.575
X171.315Y-98.625
X171.315Y-99.475
X171.315Y-100.325
X171.315Y-101.175
X171.315Y-102.025
X171.315Y-102.875
X171.315Y-103.725
X171.315Y-104.575
T4
X169.0Y-88.73
X169.0Y-90.0
X169.0Y-91.27
X169.0Y-92.54
X169.0Y-93.81
X170.27Y-88.73
X170.27Y-90.0
X170.27Y-91.27
X170.27Y-92.54
X170.27Y-93.81
T5
X161.29Y-86.36
X169.0Y-82.0
X169.0Y-84.54
T6
X156.186Y-72.414
X156.186Y-130.786
T3
G00X171.695Y-97.275
M15
G01X170.195Y-97.275
M16
G05
G00X171.695Y-105.925
M15
G01X170.195Y-105.925
M16
G05
G00X174.725Y-97.275
M15
G01X173.925Y-97.275
M16
G05
G00X174.725Y-105.925
M15
G01X173.925Y-105.925
M16
G05
M30
