%TF.GenerationSoftware,KiCad,Pcbnew,9.0.7-9.0.7~ubuntu22.04.1*%
%TF.CreationDate,2026-02-13T16:19:20-05:00*%
%TF.ProjectId,base,62617365-2e6b-4696-9361-645f70636258,rev?*%
%TF.SameCoordinates,Original*%
%TF.FileFunction,Soldermask,Bot*%
%TF.FilePolarity,Negative*%
%FSLAX46Y46*%
G04 Gerber Fmt 4.6, Leading zero omitted, Abs format (unit mm)*
G04 Created by KiCad (PCBNEW 9.0.7-9.0.7~ubuntu22.04.1) date 2026-02-13 16:19:20*
%MOMM*%
%LPD*%
G01*
G04 APERTURE LIST*
G04 Aperture macros list*
%AMRoundRect*
0 Rectangle with rounded corners*
0 $1 Rounding radius*
0 $2 $3 $4 $5 $6 $7 $8 $9 X,Y pos of 4 corners*
0 Add a 4 corners polygon primitive as box body*
4,1,4,$2,$3,$4,$5,$6,$7,$8,$9,$2,$3,0*
0 Add four circle primitives for the rounded corners*
1,1,$1+$1,$2,$3*
1,1,$1+$1,$4,$5*
1,1,$1+$1,$6,$7*
1,1,$1+$1,$8,$9*
0 Add four rect primitives between the rounded corners*
20,1,$1+$1,$2,$3,$4,$5,0*
20,1,$1+$1,$4,$5,$6,$7,0*
20,1,$1+$1,$6,$7,$8,$9,0*
20,1,$1+$1,$8,$9,$2,$3,0*%
G04 Aperture macros list end*
%ADD10C,3.500000*%
%ADD11C,2.000000*%
%ADD12R,1.000000X1.000000*%
%ADD13C,1.000000*%
%ADD14R,1.700000X1.700000*%
%ADD15C,1.700000*%
%ADD16C,5.500000*%
%ADD17RoundRect,0.200000X0.200000X0.275000X-0.200000X0.275000X-0.200000X-0.275000X0.200000X-0.275000X0*%
%ADD18RoundRect,0.225000X0.250000X-0.225000X0.250000X0.225000X-0.250000X0.225000X-0.250000X-0.225000X0*%
%ADD19RoundRect,0.225000X-0.225000X-0.250000X0.225000X-0.250000X0.225000X0.250000X-0.225000X0.250000X0*%
%ADD20RoundRect,0.218750X0.381250X-0.218750X0.381250X0.218750X-0.381250X0.218750X-0.381250X-0.218750X0*%
%ADD21RoundRect,0.062500X-0.062500X0.337500X-0.062500X-0.337500X0.062500X-0.337500X0.062500X0.337500X0*%
%ADD22RoundRect,0.062500X-0.337500X0.062500X-0.337500X-0.062500X0.337500X-0.062500X0.337500X0.062500X0*%
%ADD23R,3.600000X3.600000*%
%ADD24RoundRect,0.150000X0.150000X0.450000X-0.150000X0.450000X-0.150000X-0.450000X0.150000X-0.450000X0*%
%ADD25RoundRect,0.200000X0.275000X-0.200000X0.275000X0.200000X-0.275000X0.200000X-0.275000X-0.200000X0*%
%ADD26RoundRect,0.225000X-0.250000X0.225000X-0.250000X-0.225000X0.250000X-0.225000X0.250000X0.225000X0*%
%ADD27RoundRect,0.225000X0.225000X0.250000X-0.225000X0.250000X-0.225000X-0.250000X0.225000X-0.250000X0*%
%ADD28C,0.700000*%
%ADD29O,1.700000X0.900000*%
%ADD30O,2.400000X0.900000*%
%ADD31RoundRect,0.200000X-0.275000X0.200000X-0.275000X-0.200000X0.275000X-0.200000X0.275000X0.200000X0*%
%ADD32RoundRect,0.250000X-0.350000X0.450000X-0.350000X-0.450000X0.350000X-0.450000X0.350000X0.450000X0*%
%ADD33RoundRect,0.200000X-0.200000X-0.275000X0.200000X-0.275000X0.200000X0.275000X-0.200000X0.275000X0*%
%ADD34RoundRect,0.375000X0.625000X0.375000X-0.625000X0.375000X-0.625000X-0.375000X0.625000X-0.375000X0*%
%ADD35RoundRect,0.500000X0.500000X1.400000X-0.500000X1.400000X-0.500000X-1.400000X0.500000X-1.400000X0*%
G04 APERTURE END LIST*
D10*
X157935832Y-130785832D02*
G75*
G02*
X154435832Y-130785832I-1750000J0D01*
G01*
X154435832Y-130785832D02*
G75*
G02*
X157935832Y-130785832I1750000J0D01*
G01*
X157935832Y-72414168D02*
G75*
G02*
X154435832Y-72414168I-1750000J0D01*
G01*
X154435832Y-72414168D02*
G75*
G02*
X157935832Y-72414168I1750000J0D01*
G01*
D11*
%TO.C,TP1*%
X161290000Y-86360000D03*
%TD*%
D12*
%TO.C,J1*%
X170270000Y-93810000D03*
D13*
X169000000Y-93810000D03*
X170270000Y-92540000D03*
X169000000Y-92540000D03*
X170270000Y-91270000D03*
X169000000Y-91270000D03*
X170270000Y-90000000D03*
X169000000Y-90000000D03*
X170270000Y-88730000D03*
X169000000Y-88730000D03*
%TD*%
D14*
%TO.C,J4*%
X169000000Y-82000000D03*
D15*
X169000000Y-84540000D03*
%TD*%
D16*
%TO.C,H3*%
X156185832Y-72414168D03*
%TD*%
%TO.C,H2*%
X156185832Y-130785832D03*
%TD*%
D17*
%TO.C,R6*%
X165290000Y-119380000D03*
X163640000Y-119380000D03*
%TD*%
D18*
%TO.C,C11*%
X158750000Y-116345000D03*
X158750000Y-114795000D03*
%TD*%
D19*
%TO.C,C8*%
X163690000Y-88900000D03*
X165240000Y-88900000D03*
%TD*%
D20*
%TO.C,L1*%
X162560000Y-78532500D03*
X162560000Y-76407500D03*
%TD*%
D19*
%TO.C,C6*%
X164935000Y-127635000D03*
X166485000Y-127635000D03*
%TD*%
D21*
%TO.C,U1*%
X158360000Y-120260000D03*
X158860000Y-120260000D03*
X159360000Y-120260000D03*
X159860000Y-120260000D03*
X160360000Y-120260000D03*
X160860000Y-120260000D03*
X161360000Y-120260000D03*
X161860000Y-120260000D03*
D22*
X162560000Y-120960000D03*
X162560000Y-121460000D03*
X162560000Y-121960000D03*
X162560000Y-122460000D03*
X162560000Y-122960000D03*
X162560000Y-123460000D03*
X162560000Y-123960000D03*
X162560000Y-124460000D03*
D21*
X161860000Y-125160000D03*
X161360000Y-125160000D03*
X160860000Y-125160000D03*
X160360000Y-125160000D03*
X159860000Y-125160000D03*
X159360000Y-125160000D03*
X158860000Y-125160000D03*
X158360000Y-125160000D03*
D22*
X157660000Y-124460000D03*
X157660000Y-123960000D03*
X157660000Y-123460000D03*
X157660000Y-122960000D03*
X157660000Y-122460000D03*
X157660000Y-121960000D03*
X157660000Y-121460000D03*
X157660000Y-120960000D03*
D23*
X160110000Y-122710000D03*
%TD*%
D24*
%TO.C,Y1*%
X159350000Y-118110000D03*
X158150000Y-118110000D03*
%TD*%
D25*
%TO.C,R4*%
X168750000Y-121075000D03*
X168750000Y-119425000D03*
%TD*%
D26*
%TO.C,C4*%
X155250000Y-123725000D03*
X155250000Y-125275000D03*
%TD*%
D19*
%TO.C,R16*%
X163475000Y-129750000D03*
X165025000Y-129750000D03*
%TD*%
D27*
%TO.C,C1*%
X170955000Y-117475000D03*
X169405000Y-117475000D03*
%TD*%
D26*
%TO.C,C18*%
X167005000Y-117970000D03*
X167005000Y-119520000D03*
%TD*%
D28*
%TO.C,J5*%
X169965000Y-98625000D03*
X169965000Y-99475000D03*
X169965000Y-100325000D03*
X169965000Y-101175000D03*
X169965000Y-102025000D03*
X169965000Y-102875000D03*
X169965000Y-103725000D03*
X169965000Y-104575000D03*
X171315000Y-104575000D03*
X171315000Y-103725000D03*
X171315000Y-102875000D03*
X171315000Y-102025000D03*
X171315000Y-101175000D03*
X171315000Y-100325000D03*
X171315000Y-99475000D03*
X171315000Y-98625000D03*
D29*
X174325000Y-97275000D03*
D30*
X170945000Y-97275000D03*
D29*
X174325000Y-105925000D03*
D30*
X170945000Y-105925000D03*
%TD*%
D18*
%TO.C,C2*%
X173355000Y-112535000D03*
X173355000Y-110985000D03*
%TD*%
D17*
%TO.C,R8*%
X172910000Y-107950000D03*
X171260000Y-107950000D03*
%TD*%
D18*
%TO.C,C12*%
X160655000Y-116345000D03*
X160655000Y-114795000D03*
%TD*%
D26*
%TO.C,C5*%
X168250000Y-122975000D03*
X168250000Y-124525000D03*
%TD*%
D31*
%TO.C,R3*%
X170500000Y-119425000D03*
X170500000Y-121075000D03*
%TD*%
D32*
%TO.C,Y2*%
X166560000Y-123360000D03*
X166560000Y-125560000D03*
X164860000Y-125560000D03*
X164860000Y-123360000D03*
%TD*%
D19*
%TO.C,C7*%
X162420000Y-74295000D03*
X163970000Y-74295000D03*
%TD*%
D33*
%TO.C,FB1*%
X164275000Y-121285000D03*
X165925000Y-121285000D03*
%TD*%
D27*
%TO.C,C3*%
X156025000Y-122250000D03*
X154475000Y-122250000D03*
%TD*%
D17*
%TO.C,R2*%
X167830000Y-100330000D03*
X166180000Y-100330000D03*
%TD*%
D20*
%TO.C,L2*%
X163830000Y-93137500D03*
X163830000Y-91012500D03*
%TD*%
D17*
%TO.C,R1*%
X167830000Y-102235000D03*
X166180000Y-102235000D03*
%TD*%
%TO.C,R5*%
X165290000Y-117475000D03*
X163640000Y-117475000D03*
%TD*%
D34*
%TO.C,U3*%
X170790000Y-110730000D03*
X170790000Y-113030000D03*
D35*
X164490000Y-113030000D03*
D34*
X170790000Y-115330000D03*
%TD*%
M02*
