%TF.GenerationSoftware,KiCad,Pcbnew,9.0.7-9.0.7~ubuntu22.04.1*%
%TF.CreationDate,2026-02-13T16:19:20-05:00*%
%TF.ProjectId,base,62617365-2e6b-4696-9361-645f70636258,rev?*%
%TF.SameCoordinates,Original*%
%TF.FileFunction,Copper,L1,Top*%
%TF.FilePolarity,Positive*%
%FSLAX46Y46*%
G04 Gerber Fmt 4.6, Leading zero omitted, Abs format (unit mm)*
G04 Created by KiCad (PCBNEW 9.0.7-9.0.7~ubuntu22.04.1) date 2026-02-13 16:19:20*
%MOMM*%
%LPD*%
G01*
G04 APERTURE LIST*
G04 Aperture macros list*
%AMRoundRect*
0 Rectangle with rounded corners*
0 $1 Rounding radius*
0 $2 $3 $4 $5 $6 $7 $8 $9 X,Y pos of 4 corners*
0 Add a 4 corners polygon primitive as box body*
4,1,4,$2,$3,$4,$5,$6,$7,$8,$9,$2,$3,0*
0 Add four circle primitives for the rounded corners*
1,1,$1+$1,$2,$3*
1,1,$1+$1,$4,$5*
1,1,$1+$1,$6,$7*
1,1,$1+$1,$8,$9*
0 Add four rect primitives between the rounded corners*
20,1,$1+$1,$2,$3,$4,$5,0*
20,1,$1+$1,$4,$5,$6,$7,0*
20,1,$1+$1,$6,$7,$8,$9,0*
20,1,$1+$1,$8,$9,$2,$3,0*%
G04 Aperture macros list end*
%TA.AperFunction,ComponentPad*%
%ADD10C,2.000000*%
%TD*%
%TA.AperFunction,ComponentPad*%
%ADD11R,1.000000X1.000000*%
%TD*%
%TA.AperFunction,ComponentPad*%
%ADD12C,1.000000*%
%TD*%
%TA.AperFunction,ComponentPad*%
%ADD13R,1.700000X1.700000*%
%TD*%
%TA.AperFunction,ComponentPad*%
%ADD14C,1.700000*%
%TD*%
%TA.AperFunction,ComponentPad*%
%ADD15C,5.500000*%
%TD*%
%TA.AperFunction,SMDPad,CuDef*%
%ADD16RoundRect,0.243750X0.456250X-0.243750X0.456250X0.243750X-0.456250X0.243750X-0.456250X-0.243750X0*%
%TD*%
%TA.AperFunction,ComponentPad*%
%ADD17C,0.700000*%
%TD*%
%TA.AperFunction,ComponentPad*%
%ADD18O,1.700000X0.900000*%
%TD*%
%TA.AperFunction,ComponentPad*%
%ADD19O,2.400000X0.900000*%
%TD*%
%TA.AperFunction,ViaPad*%
%ADD20C,0.600000*%
%TD*%
%TA.AperFunction,Conductor*%
%ADD21C,0.400000*%
%TD*%
%TA.AperFunction,Conductor*%
%ADD22C,0.200000*%
%TD*%
G04 APERTURE END LIST*
D10*
%TO.P,TP1,1,1*%
%TO.N,Net-(C8-Pad1)*%
X161290000Y-86360000D03*
%TD*%
D11*
%TO.P,J1,1,Pin_1*%
%TO.N,+3.3V*%
X170270000Y-93810000D03*
D12*
%TO.P,J1,2,Pin_2*%
%TO.N,/SWDIO*%
X169000000Y-93810000D03*
%TO.P,J1,3,Pin_3*%
%TO.N,GND*%
X170270000Y-92540000D03*
%TO.P,J1,4,Pin_4*%
%TO.N,/SWCLK*%
X169000000Y-92540000D03*
%TO.P,J1,5,Pin_5*%
%TO.N,GND*%
X170270000Y-91270000D03*
%TO.P,J1,6,Pin_6*%
%TO.N,unconnected-(J1-Pin_6-Pad6)*%
X169000000Y-91270000D03*
%TO.P,J1,7,Pin_7*%
%TO.N,unconnected-(J1-Pin_7-Pad7)*%
X170270000Y-90000000D03*
%TO.P,J1,8,Pin_8*%
%TO.N,unconnected-(J1-Pin_8-Pad8)*%
X169000000Y-90000000D03*
%TO.P,J1,9,Pin_9*%
%TO.N,GND*%
X170270000Y-88730000D03*
%TO.P,J1,10,Pin_10*%
%TO.N,/~{SRST}*%
X169000000Y-88730000D03*
%TD*%
D13*
%TO.P,J4,1,Pin_1*%
%TO.N,/TXD*%
X169000000Y-82000000D03*
D14*
%TO.P,J4,2,Pin_2*%
%TO.N,/RXD*%
X169000000Y-84540000D03*
%TD*%
D15*
%TO.P,H3,1,1*%
%TO.N,Net-(C7-Pad1)*%
X156185832Y-72414168D03*
%TD*%
D16*
%TO.P,D2,1,K*%
%TO.N,Net-(D2-K)*%
X165750000Y-125187500D03*
%TO.P,D2,2,A*%
%TO.N,Net-(D2-A)*%
X165750000Y-123312500D03*
%TD*%
D15*
%TO.P,H2,1,1*%
%TO.N,Net-(C7-Pad1)*%
X156185832Y-130785832D03*
%TD*%
D17*
%TO.P,J5,A1,GND*%
%TO.N,GND*%
X169965000Y-98625000D03*
%TO.P,J5,A4,VBUS*%
%TO.N,+5V*%
X169965000Y-99475000D03*
%TO.P,J5,A5,CC1*%
%TO.N,Net-(J5-CC1)*%
X169965000Y-100325000D03*
%TO.P,J5,A6,D+*%
%TO.N,/D+*%
X169965000Y-101175000D03*
%TO.P,J5,A7,D-*%
%TO.N,/D-*%
X169965000Y-102025000D03*
%TO.P,J5,A8,SBU1*%
%TO.N,unconnected-(J5-SBU1-PadA8)*%
X169965000Y-102875000D03*
%TO.P,J5,A9,VBUS*%
%TO.N,+5V*%
X169965000Y-103725000D03*
%TO.P,J5,A12,GND*%
%TO.N,GND*%
X169965000Y-104575000D03*
%TO.P,J5,B1,GND*%
X171315000Y-104575000D03*
%TO.P,J5,B4,VBUS*%
%TO.N,+5V*%
X171315000Y-103725000D03*
%TO.P,J5,B5,CC2*%
%TO.N,Net-(J5-CC2)*%
X171315000Y-102875000D03*
%TO.P,J5,B6,D+*%
%TO.N,/D+*%
X171315000Y-102025000D03*
%TO.P,J5,B7,D-*%
%TO.N,/D-*%
X171315000Y-101175000D03*
%TO.P,J5,B8,SBU2*%
%TO.N,unconnected-(J5-SBU2-PadB8)*%
X171315000Y-100325000D03*
%TO.P,J5,B9,VBUS*%
%TO.N,+5V*%
X171315000Y-99475000D03*
%TO.P,J5,B12,GND*%
%TO.N,GND*%
X171315000Y-98625000D03*
D18*
%TO.P,J5,S1,SHIELD*%
%TO.N,unconnected-(J5-SHIELD-PadS1)*%
X174325000Y-97275000D03*
D19*
%TO.N,unconnected-(J5-SHIELD-PadS1)_3*%
X170945000Y-97275000D03*
D18*
%TO.N,unconnected-(J5-SHIELD-PadS1)_2*%
X174325000Y-105925000D03*
D19*
%TO.N,unconnected-(J5-SHIELD-PadS1)_1*%
X170945000Y-105925000D03*
%TD*%
D20*
%TO.N,Net-(D2-K)*%
X163250000Y-128250000D03*
%TO.N,/SWCLK*%
X163540380Y-102040380D03*
%TO.N,/SWDIO*%
X164400000Y-104443113D03*
%TO.N,/~{SRST}*%
X163600000Y-100311635D03*
X156500000Y-125500000D03*
%TO.N,/RXD*%
X165750000Y-109674780D03*
%TO.N,/TXD*%
X164397575Y-110458111D03*
%TO.N,Net-(C7-Pad1)*%
X168000000Y-108000000D03*
X162500000Y-95000000D03*
%TO.N,+5V*%
X163503678Y-95564340D03*
X169150000Y-114459311D03*
%TO.N,GND*%
X161750000Y-92750000D03*
X169500000Y-120250000D03*
X168500000Y-116750000D03*
X169250000Y-110750000D03*
%TO.N,+3.3V*%
X165000000Y-103250000D03*
X166750000Y-113000000D03*
X167250000Y-121075000D03*
X156250000Y-121500000D03*
%TO.N,Net-(C7-Pad1)*%
X162000000Y-71750000D03*
%TO.N,Net-(D2-A)*%
X161750000Y-127000000D03*
%TO.N,/SWCLK*%
X156250704Y-120418535D03*
%TO.N,/SWDIO*%
X156900704Y-120000000D03*
%TO.N,/RXD*%
X163732057Y-123612781D03*
%TO.N,/TXD*%
X163350000Y-122859257D03*
%TO.N,/D-*%
X158139659Y-126565281D03*
%TO.N,/D+*%
X157324479Y-126324479D03*
%TD*%
D21*
%TO.N,Net-(C7-Pad1)*%
X156185832Y-72414168D02*
X161335832Y-72414168D01*
X161335832Y-72414168D02*
X162000000Y-71750000D01*
D22*
%TO.N,GND*%
X169500000Y-117750000D02*
X169500000Y-120250000D01*
X168500000Y-116750000D02*
X169500000Y-117750000D01*
%TO.N,/SWCLK*%
X156250704Y-120418535D02*
X156250704Y-119749296D01*
X156250704Y-119749296D02*
X161000000Y-115000000D01*
X161000000Y-115000000D02*
X161000000Y-107750000D01*
X161000000Y-107750000D02*
X163750000Y-105000000D01*
X163750000Y-105000000D02*
X163750000Y-102250000D01*
X163750000Y-102250000D02*
X163540380Y-102040380D01*
%TO.N,+3.3V*%
X165000000Y-104762352D02*
X165000000Y-103250000D01*
X161900000Y-107862352D02*
X165000000Y-104762352D01*
X161900000Y-115850000D02*
X161900000Y-107862352D01*
X156250000Y-121500000D02*
X161900000Y-115850000D01*
%TO.N,/~{SRST}*%
X156500000Y-125500000D02*
X156500000Y-122500000D01*
X162250000Y-108007326D02*
X165750000Y-104507326D01*
X163945639Y-100311635D02*
X163600000Y-100311635D01*
%TO.N,/SWDIO*%
X161500000Y-115327865D02*
X161500000Y-107744974D01*
%TO.N,/~{SRST}*%
X165750000Y-102115996D02*
X163945639Y-100311635D01*
X165750000Y-104507326D02*
X165750000Y-102115996D01*
X162250000Y-116750000D02*
X162250000Y-108007326D01*
X156500000Y-122500000D02*
X162250000Y-116750000D01*
%TO.N,/SWDIO*%
X164400000Y-104844974D02*
X164400000Y-104443113D01*
X159950000Y-116877865D02*
X161500000Y-115327865D01*
X156900704Y-120000000D02*
X159950000Y-116950704D01*
X161500000Y-107744974D02*
X164400000Y-104844974D01*
X159950000Y-116950704D02*
X159950000Y-116877865D01*
%TO.N,/D-*%
X169965000Y-102025000D02*
X168975000Y-102025000D01*
X163000000Y-121426776D02*
X163000000Y-121568199D01*
X168975000Y-102025000D02*
X167350000Y-103650000D01*
X167350000Y-103650000D02*
X167350000Y-104897487D01*
X163000000Y-121568199D02*
X158139659Y-126428540D01*
X158139659Y-126428540D02*
X158139659Y-126565281D01*
X167350000Y-104897487D02*
X163600000Y-108647487D01*
X163600000Y-108647487D02*
X163600000Y-120826775D01*
X163600000Y-120826775D02*
X163000000Y-121426776D01*
%TO.N,/D+*%
X163250000Y-108502513D02*
X163250000Y-120681801D01*
X167000000Y-104752513D02*
X163250000Y-108502513D01*
X169325000Y-101175000D02*
X167000000Y-103500000D01*
X157764860Y-125884099D02*
X157324479Y-126324479D01*
X167000000Y-103500000D02*
X167000000Y-104752513D01*
X169965000Y-101175000D02*
X169325000Y-101175000D01*
X158047702Y-125884099D02*
X157764860Y-125884099D01*
X163250000Y-120681801D02*
X158047702Y-125884099D01*
%TO.N,/RXD*%
X163732057Y-123612781D02*
X164000000Y-123344838D01*
X165100000Y-121604231D02*
X165100000Y-110324780D01*
X165100000Y-110324780D02*
X165750000Y-109674780D01*
%TO.N,/TXD*%
X164750000Y-110810536D02*
X164397575Y-110458111D01*
%TO.N,/RXD*%
X164000000Y-123344838D02*
X164000000Y-122704231D01*
X164000000Y-122704231D02*
X165100000Y-121604231D01*
%TO.N,/TXD*%
X163350000Y-122859257D02*
X164750000Y-121459257D01*
X164750000Y-121459257D02*
X164750000Y-110810536D01*
%TO.N,Net-(D2-K)*%
X165750000Y-125187500D02*
X163250000Y-127687500D01*
X163250000Y-127687500D02*
X163250000Y-128250000D01*
%TO.N,Net-(D2-A)*%
X162062500Y-127000000D02*
X161750000Y-127000000D01*
X165750000Y-123312500D02*
X162062500Y-127000000D01*
%TO.N,GND*%
X170270000Y-92540000D02*
X170977106Y-92540000D01*
X170977106Y-92540000D02*
X172500000Y-94062894D01*
X172500000Y-94062894D02*
X172500000Y-97532074D01*
X172500000Y-97532074D02*
X171407074Y-98625000D01*
X171407074Y-98625000D02*
X171315000Y-98625000D01*
D21*
%TO.N,+5V*%
X167414338Y-99475000D02*
X163503678Y-95564340D01*
X169965000Y-99475000D02*
X167414338Y-99475000D01*
X171315000Y-99475000D02*
X169965000Y-99475000D01*
%TO.N,GND*%
X167625000Y-98625000D02*
X161750000Y-92750000D01*
X169965000Y-98625000D02*
X167625000Y-98625000D01*
X171315000Y-98625000D02*
X169965000Y-98625000D01*
D22*
%TO.N,+5V*%
X172750000Y-104665026D02*
X172750000Y-110750000D01*
X171809974Y-103725000D02*
X172750000Y-104665026D01*
X169150000Y-114350000D02*
X169150000Y-114459311D01*
X171315000Y-103725000D02*
X171809974Y-103725000D01*
X171315000Y-103725000D02*
X171475000Y-103725000D01*
X172225000Y-99475000D02*
X171315000Y-99475000D01*
X171475000Y-103725000D02*
X172500000Y-102700000D01*
X172750000Y-110750000D02*
X169150000Y-114350000D01*
X172500000Y-102700000D02*
X172500000Y-99750000D01*
X169965000Y-103725000D02*
X171315000Y-103725000D01*
X172500000Y-99750000D02*
X172225000Y-99475000D01*
%TO.N,GND*%
X168500000Y-116750000D02*
X168500000Y-111500000D01*
X169965000Y-104575000D02*
X171315000Y-104575000D01*
X168500000Y-111500000D02*
X169250000Y-110750000D01*
X167625000Y-98625000D02*
X171315000Y-98625000D01*
%TO.N,+3.3V*%
X166750000Y-120575000D02*
X167250000Y-121075000D01*
X166750000Y-113000000D02*
X166750000Y-120575000D01*
%TO.N,/D-*%
X170225000Y-102025000D02*
X169965000Y-102025000D01*
X171315000Y-101175000D02*
X171075000Y-101175000D01*
X171075000Y-101175000D02*
X170225000Y-102025000D01*
%TD*%
%TA.AperFunction,Conductor*%
%TO.N,Net-(C7-Pad1)*%
G36*
X161433971Y-67605844D02*
G01*
X161460981Y-67626905D01*
X161763455Y-67938870D01*
X162211489Y-68400961D01*
X162213862Y-68403478D01*
X163127104Y-69399729D01*
X163129366Y-69402268D01*
X163623224Y-69972258D01*
X164014351Y-70423681D01*
X164016588Y-70426337D01*
X164872619Y-71472109D01*
X164874780Y-71474826D01*
X165701191Y-72544142D01*
X165703275Y-72546918D01*
X166499419Y-73638939D01*
X166501425Y-73641773D01*
X167266707Y-74755683D01*
X167268633Y-74758571D01*
X168002429Y-75893467D01*
X168004273Y-75896409D01*
X168705999Y-77051380D01*
X168707760Y-77054372D01*
X169376890Y-78228559D01*
X169378566Y-78231599D01*
X170014539Y-79424013D01*
X170016130Y-79427098D01*
X170618515Y-80636931D01*
X170620018Y-80640061D01*
X171188251Y-81866185D01*
X171189667Y-81869354D01*
X171715371Y-83092335D01*
X171723381Y-83110968D01*
X171724707Y-83114177D01*
X172223442Y-84370221D01*
X172224678Y-84373465D01*
X172688059Y-85642985D01*
X172689204Y-85646263D01*
X173116869Y-86928277D01*
X173117921Y-86931585D01*
X173509526Y-88225059D01*
X173510485Y-88228396D01*
X173865716Y-89532287D01*
X173866582Y-89535649D01*
X174185182Y-90849017D01*
X174185953Y-90852402D01*
X174467661Y-92174173D01*
X174468337Y-92177578D01*
X174712925Y-93506681D01*
X174713506Y-93510104D01*
X174920799Y-94845588D01*
X174921283Y-94849025D01*
X175091103Y-96189748D01*
X175091491Y-96193199D01*
X175093744Y-96216119D01*
X175080712Y-96284763D01*
X175032638Y-96335464D01*
X174964784Y-96352125D01*
X174946148Y-96349867D01*
X174818620Y-96324500D01*
X174818616Y-96324500D01*
X173831384Y-96324500D01*
X173831379Y-96324500D01*
X173647756Y-96361025D01*
X173647748Y-96361027D01*
X173474771Y-96432676D01*
X173474762Y-96432681D01*
X173319092Y-96536697D01*
X173319088Y-96536700D01*
X173312181Y-96543608D01*
X173250858Y-96577093D01*
X173181166Y-96572109D01*
X173125233Y-96530237D01*
X173100816Y-96464773D01*
X173100500Y-96455927D01*
X173100500Y-93983839D01*
X173100500Y-93983837D01*
X173059577Y-93831110D01*
X173059573Y-93831103D01*
X172980524Y-93694184D01*
X172980521Y-93694180D01*
X172980520Y-93694178D01*
X172868716Y-93582374D01*
X172868715Y-93582373D01*
X172864385Y-93578043D01*
X172864374Y-93578033D01*
X171464696Y-92178355D01*
X171464694Y-92178352D01*
X171345823Y-92059481D01*
X171345822Y-92059480D01*
X171245480Y-92001548D01*
X171208891Y-91980423D01*
X171187019Y-91974562D01*
X171177034Y-91969870D01*
X171158808Y-91953726D01*
X171138019Y-91941054D01*
X171133122Y-91930972D01*
X171124733Y-91923542D01*
X171118127Y-91900105D01*
X171107490Y-91878206D01*
X171108820Y-91867079D01*
X171105780Y-91856292D01*
X171112894Y-91833005D01*
X171115785Y-91808831D01*
X171126082Y-91789839D01*
X171126195Y-91789471D01*
X171126356Y-91789334D01*
X171126672Y-91788752D01*
X171156627Y-91743921D01*
X171156632Y-91743914D01*
X171232051Y-91561835D01*
X171270500Y-91368541D01*
X171270500Y-91171459D01*
X171270500Y-91171456D01*
X171232052Y-90978170D01*
X171232051Y-90978169D01*
X171232051Y-90978165D01*
X171178557Y-90849017D01*
X171156635Y-90796092D01*
X171156633Y-90796088D01*
X171156632Y-90796086D01*
X171095029Y-90703891D01*
X171074151Y-90637214D01*
X171092635Y-90569834D01*
X171095029Y-90566109D01*
X171107872Y-90546887D01*
X171156632Y-90473914D01*
X171232051Y-90291835D01*
X171270500Y-90098541D01*
X171270500Y-89901459D01*
X171270500Y-89901456D01*
X171232052Y-89708170D01*
X171232051Y-89708169D01*
X171232051Y-89708165D01*
X171226541Y-89694863D01*
X171156635Y-89526092D01*
X171156633Y-89526088D01*
X171156632Y-89526086D01*
X171095029Y-89433891D01*
X171074151Y-89367214D01*
X171092635Y-89299834D01*
X171095029Y-89296109D01*
X171107872Y-89276887D01*
X171156632Y-89203914D01*
X171232051Y-89021835D01*
X171270500Y-88828541D01*
X171270500Y-88631459D01*
X171270500Y-88631456D01*
X171232052Y-88438170D01*
X171232051Y-88438169D01*
X171232051Y-88438165D01*
X171232049Y-88438160D01*
X171156635Y-88256092D01*
X171156628Y-88256079D01*
X171047139Y-88092218D01*
X171047136Y-88092214D01*
X170907785Y-87952863D01*
X170907781Y-87952860D01*
X170743920Y-87843371D01*
X170743907Y-87843364D01*
X170561839Y-87767950D01*
X170561829Y-87767947D01*
X170368543Y-87729500D01*
X170368541Y-87729500D01*
X170171459Y-87729500D01*
X170171457Y-87729500D01*
X169978170Y-87767947D01*
X169978160Y-87767950D01*
X169796089Y-87843366D01*
X169703890Y-87904971D01*
X169637213Y-87925848D01*
X169569833Y-87907363D01*
X169566110Y-87904971D01*
X169539740Y-87887352D01*
X169473914Y-87843368D01*
X169473911Y-87843366D01*
X169473910Y-87843366D01*
X169291839Y-87767950D01*
X169291829Y-87767947D01*
X169098543Y-87729500D01*
X169098541Y-87729500D01*
X168901459Y-87729500D01*
X168901457Y-87729500D01*
X168708170Y-87767947D01*
X168708160Y-87767950D01*
X168526092Y-87843364D01*
X168526079Y-87843371D01*
X168362218Y-87952860D01*
X168362214Y-87952863D01*
X168222863Y-88092214D01*
X168222860Y-88092218D01*
X168113371Y-88256079D01*
X168113364Y-88256092D01*
X168037950Y-88438160D01*
X168037947Y-88438170D01*
X167999500Y-88631456D01*
X167999500Y-88631459D01*
X167999500Y-88828541D01*
X167999500Y-88828543D01*
X167999499Y-88828543D01*
X168037947Y-89021829D01*
X168037950Y-89021839D01*
X168113365Y-89203907D01*
X168113368Y-89203914D01*
X168157352Y-89269740D01*
X168174971Y-89296110D01*
X168195848Y-89362787D01*
X168177363Y-89430167D01*
X168174971Y-89433890D01*
X168113366Y-89526089D01*
X168037950Y-89708160D01*
X168037947Y-89708170D01*
X167999500Y-89901456D01*
X167999500Y-89901459D01*
X167999500Y-90098541D01*
X167999500Y-90098543D01*
X167999499Y-90098543D01*
X168037947Y-90291829D01*
X168037950Y-90291839D01*
X168113365Y-90473907D01*
X168113368Y-90473914D01*
X168157352Y-90539740D01*
X168174971Y-90566110D01*
X168195848Y-90632787D01*
X168177363Y-90700167D01*
X168174971Y-90703890D01*
X168113366Y-90796089D01*
X168037950Y-90978160D01*
X168037947Y-90978170D01*
X167999500Y-91171456D01*
X167999500Y-91171459D01*
X167999500Y-91368541D01*
X167999500Y-91368543D01*
X167999499Y-91368543D01*
X168037947Y-91561829D01*
X168037950Y-91561839D01*
X168075631Y-91652809D01*
X168113368Y-91743914D01*
X168113373Y-91743921D01*
X168174971Y-91836110D01*
X168195848Y-91902787D01*
X168177363Y-91970167D01*
X168174971Y-91973890D01*
X168113366Y-92066089D01*
X168037950Y-92248160D01*
X168037947Y-92248170D01*
X167999500Y-92441456D01*
X167999500Y-92441459D01*
X167999500Y-92638541D01*
X167999500Y-92638543D01*
X167999499Y-92638543D01*
X168037947Y-92831829D01*
X168037950Y-92831839D01*
X168113366Y-93013910D01*
X168113368Y-93013914D01*
X168157352Y-93079740D01*
X168174971Y-93106110D01*
X168195848Y-93172787D01*
X168177363Y-93240167D01*
X168174971Y-93243890D01*
X168113366Y-93336089D01*
X168037950Y-93518160D01*
X168037947Y-93518170D01*
X167999500Y-93711456D01*
X167999500Y-93711459D01*
X167999500Y-93908541D01*
X167999500Y-93908543D01*
X167999499Y-93908543D01*
X168037947Y-94101829D01*
X168037950Y-94101839D01*
X168113364Y-94283907D01*
X168113371Y-94283920D01*
X168222860Y-94447781D01*
X168222863Y-94447785D01*
X168362214Y-94587136D01*
X168362218Y-94587139D01*
X168526079Y-94696628D01*
X168526092Y-94696635D01*
X168708160Y-94772049D01*
X168708165Y-94772051D01*
X168708169Y-94772051D01*
X168708170Y-94772052D01*
X168901456Y-94810500D01*
X168901459Y-94810500D01*
X169098543Y-94810500D01*
X169228582Y-94784632D01*
X169291835Y-94772051D01*
X169394126Y-94729680D01*
X169463590Y-94722212D01*
X169515887Y-94744976D01*
X169527668Y-94753795D01*
X169527671Y-94753797D01*
X169662517Y-94804091D01*
X169662516Y-94804091D01*
X169669444Y-94804835D01*
X169722127Y-94810500D01*
X170817872Y-94810499D01*
X170877483Y-94804091D01*
X171012331Y-94753796D01*
X171127546Y-94667546D01*
X171213796Y-94552331D01*
X171264091Y-94417483D01*
X171270500Y-94357873D01*
X171270499Y-93981988D01*
X171290183Y-93914951D01*
X171342987Y-93869196D01*
X171412146Y-93859252D01*
X171475701Y-93888277D01*
X171482180Y-93894309D01*
X171863181Y-94275310D01*
X171896666Y-94336633D01*
X171899500Y-94362991D01*
X171899500Y-96200500D01*
X171879815Y-96267539D01*
X171827011Y-96313294D01*
X171775500Y-96324500D01*
X170101379Y-96324500D01*
X169917756Y-96361025D01*
X169917748Y-96361027D01*
X169744771Y-96432676D01*
X169744762Y-96432681D01*
X169589092Y-96536697D01*
X169589088Y-96536700D01*
X169456700Y-96669088D01*
X169456697Y-96669092D01*
X169352681Y-96824762D01*
X169352676Y-96824771D01*
X169281027Y-96997748D01*
X169281025Y-96997756D01*
X169244500Y-97181379D01*
X169244500Y-97368620D01*
X169281025Y-97552243D01*
X169281027Y-97552251D01*
X169352676Y-97725228D01*
X169352681Y-97725237D01*
X169356939Y-97731609D01*
X169377817Y-97798286D01*
X169359333Y-97865667D01*
X169307354Y-97912357D01*
X169253837Y-97924500D01*
X167966519Y-97924500D01*
X167899480Y-97904815D01*
X167878838Y-97888181D01*
X162546071Y-92555414D01*
X162519191Y-92515185D01*
X162459397Y-92370827D01*
X162459390Y-92370814D01*
X162371789Y-92239711D01*
X162371786Y-92239707D01*
X162260292Y-92128213D01*
X162260288Y-92128210D01*
X162129185Y-92040609D01*
X162129172Y-92040602D01*
X161983501Y-91980264D01*
X161983489Y-91980261D01*
X161828845Y-91949500D01*
X161828842Y-91949500D01*
X161671158Y-91949500D01*
X161671155Y-91949500D01*
X161516510Y-91980261D01*
X161516498Y-91980264D01*
X161370827Y-92040602D01*
X161370814Y-92040609D01*
X161239711Y-92128210D01*
X161239707Y-92128213D01*
X161128213Y-92239707D01*
X161128210Y-92239711D01*
X161040609Y-92370814D01*
X161040602Y-92370827D01*
X160980264Y-92516498D01*
X160980261Y-92516510D01*
X160949500Y-92671153D01*
X160949500Y-92828846D01*
X160980261Y-92983489D01*
X160980264Y-92983501D01*
X161040602Y-93129172D01*
X161040609Y-93129185D01*
X161128210Y-93260288D01*
X161128213Y-93260292D01*
X161239707Y-93371786D01*
X161239711Y-93371789D01*
X161370814Y-93459390D01*
X161370827Y-93459397D01*
X161515185Y-93519191D01*
X161555414Y-93546071D01*
X162884960Y-94875617D01*
X162918445Y-94936940D01*
X162913461Y-95006632D01*
X162884966Y-95050973D01*
X162881892Y-95054046D01*
X162881886Y-95054054D01*
X162794287Y-95185154D01*
X162794280Y-95185167D01*
X162733942Y-95330838D01*
X162733939Y-95330850D01*
X162703178Y-95485493D01*
X162703178Y-95643186D01*
X162733939Y-95797829D01*
X162733942Y-95797841D01*
X162794280Y-95943512D01*
X162794287Y-95943525D01*
X162881888Y-96074628D01*
X162881891Y-96074632D01*
X162993385Y-96186126D01*
X162993389Y-96186129D01*
X163124492Y-96273730D01*
X163124505Y-96273737D01*
X163268865Y-96333532D01*
X163309094Y-96360412D01*
X166870224Y-99921542D01*
X166967796Y-100019114D01*
X166967797Y-100019115D01*
X167082520Y-100095771D01*
X167082524Y-100095773D01*
X167082527Y-100095775D01*
X167137912Y-100118716D01*
X167210009Y-100148580D01*
X167236929Y-100153934D01*
X167332961Y-100173036D01*
X167345344Y-100175500D01*
X167345345Y-100175500D01*
X168990500Y-100175500D01*
X168993799Y-100176468D01*
X168997148Y-100175678D01*
X169027089Y-100186243D01*
X169057539Y-100195185D01*
X169059790Y-100197783D01*
X169063036Y-100198929D01*
X169082514Y-100224008D01*
X169103294Y-100247989D01*
X169104407Y-100252196D01*
X169105894Y-100254110D01*
X169108366Y-100267152D01*
X169114007Y-100288459D01*
X169114500Y-100293973D01*
X169114500Y-100408767D01*
X169133139Y-100502476D01*
X169133733Y-100509112D01*
X169128160Y-100537112D01*
X169125615Y-100565554D01*
X169121428Y-100570943D01*
X169120096Y-100577638D01*
X169100266Y-100598184D01*
X169082752Y-100620731D01*
X169072226Y-100627540D01*
X168956287Y-100694477D01*
X168956282Y-100694481D01*
X166562181Y-103088583D01*
X166500858Y-103122068D01*
X166431166Y-103117084D01*
X166375233Y-103075212D01*
X166350816Y-103009748D01*
X166350500Y-103000902D01*
X166350500Y-102205056D01*
X166350501Y-102205043D01*
X166350501Y-102036941D01*
X166350501Y-102036939D01*
X166309577Y-101884211D01*
X166230520Y-101747280D01*
X164433228Y-99949989D01*
X164433227Y-99949987D01*
X164314356Y-99831116D01*
X164314355Y-99831115D01*
X164227355Y-99780886D01*
X164227354Y-99780885D01*
X164214641Y-99773545D01*
X164179912Y-99753494D01*
X164154230Y-99733787D01*
X164110292Y-99689848D01*
X164110288Y-99689845D01*
X163979185Y-99602244D01*
X163979172Y-99602237D01*
X163833501Y-99541899D01*
X163833489Y-99541896D01*
X163678845Y-99511135D01*
X163678842Y-99511135D01*
X163521158Y-99511135D01*
X163521155Y-99511135D01*
X163366510Y-99541896D01*
X163366498Y-99541899D01*
X163220827Y-99602237D01*
X163220814Y-99602244D01*
X163089711Y-99689845D01*
X163089707Y-99689848D01*
X162978213Y-99801342D01*
X162978210Y-99801346D01*
X162890609Y-99932449D01*
X162890602Y-99932462D01*
X162830264Y-100078133D01*
X162830261Y-100078145D01*
X162799500Y-100232788D01*
X162799500Y-100390481D01*
X162830261Y-100545124D01*
X162830264Y-100545136D01*
X162890602Y-100690807D01*
X162890609Y-100690820D01*
X162978210Y-100821923D01*
X162978213Y-100821927D01*
X163089707Y-100933421D01*
X163089711Y-100933424D01*
X163220814Y-101021025D01*
X163220821Y-101021029D01*
X163288588Y-101049098D01*
X163342990Y-101092938D01*
X163365056Y-101159231D01*
X163347778Y-101226931D01*
X163296641Y-101274542D01*
X163288588Y-101278220D01*
X163161204Y-101330984D01*
X163161194Y-101330989D01*
X163030091Y-101418590D01*
X163030087Y-101418593D01*
X162918593Y-101530087D01*
X162918590Y-101530091D01*
X162830989Y-101661194D01*
X162830982Y-101661207D01*
X162770644Y-101806878D01*
X162770641Y-101806890D01*
X162739880Y-101961533D01*
X162739880Y-102119226D01*
X162770641Y-102273869D01*
X162770644Y-102273881D01*
X162830982Y-102419552D01*
X162830989Y-102419565D01*
X162918590Y-102550668D01*
X162918593Y-102550672D01*
X163030087Y-102662166D01*
X163030092Y-102662170D01*
X163094389Y-102705131D01*
X163139195Y-102758743D01*
X163149500Y-102808234D01*
X163149500Y-104699902D01*
X163129815Y-104766941D01*
X163113181Y-104787583D01*
X160519481Y-107381282D01*
X160519479Y-107381284D01*
X160492507Y-107428002D01*
X160481107Y-107447749D01*
X160460765Y-107482982D01*
X160440423Y-107518214D01*
X160440423Y-107518215D01*
X160399499Y-107670943D01*
X160399499Y-107670945D01*
X160399499Y-107839046D01*
X160399500Y-107839059D01*
X160399500Y-114699902D01*
X160379815Y-114766941D01*
X160363181Y-114787583D01*
X155770185Y-119380578D01*
X155770183Y-119380581D01*
X155720065Y-119467390D01*
X155720063Y-119467392D01*
X155691129Y-119517505D01*
X155691128Y-119517506D01*
X155691127Y-119517511D01*
X155650203Y-119670239D01*
X155650203Y-119670241D01*
X155650203Y-119838342D01*
X155650204Y-119838355D01*
X155650204Y-119838769D01*
X155630519Y-119905808D01*
X155629306Y-119907660D01*
X155541313Y-120039349D01*
X155541306Y-120039362D01*
X155480968Y-120185033D01*
X155480965Y-120185045D01*
X155450204Y-120339688D01*
X155450204Y-120497381D01*
X155480965Y-120652024D01*
X155480968Y-120652036D01*
X155541306Y-120797707D01*
X155541312Y-120797718D01*
X155602873Y-120889851D01*
X155623750Y-120956528D01*
X155605265Y-121023908D01*
X155602872Y-121027632D01*
X155540609Y-121120814D01*
X155540602Y-121120827D01*
X155480264Y-121266498D01*
X155480261Y-121266510D01*
X155449500Y-121421153D01*
X155449500Y-121578846D01*
X155480261Y-121733489D01*
X155480264Y-121733501D01*
X155540602Y-121879172D01*
X155540609Y-121879185D01*
X155628210Y-122010288D01*
X155628213Y-122010292D01*
X155739707Y-122121786D01*
X155739711Y-122121789D01*
X155869339Y-122208404D01*
X155914144Y-122262016D01*
X155922851Y-122331341D01*
X155920223Y-122343599D01*
X155899499Y-122420943D01*
X155899499Y-122589046D01*
X155899500Y-122589059D01*
X155899500Y-124920234D01*
X155879815Y-124987273D01*
X155878602Y-124989125D01*
X155790609Y-125120814D01*
X155790602Y-125120827D01*
X155730264Y-125266498D01*
X155730261Y-125266510D01*
X155699500Y-125421153D01*
X155699500Y-125578846D01*
X155730261Y-125733489D01*
X155730264Y-125733501D01*
X155790602Y-125879172D01*
X155790609Y-125879185D01*
X155878210Y-126010288D01*
X155878213Y-126010292D01*
X155989707Y-126121786D01*
X155989711Y-126121789D01*
X156120814Y-126209390D01*
X156120827Y-126209397D01*
X156266498Y-126269735D01*
X156266503Y-126269737D01*
X156421158Y-126300500D01*
X156425657Y-126301395D01*
X156487568Y-126333780D01*
X156522142Y-126394495D01*
X156523083Y-126398820D01*
X156554740Y-126557970D01*
X156554743Y-126557980D01*
X156615081Y-126703651D01*
X156615088Y-126703664D01*
X156702689Y-126834767D01*
X156702692Y-126834771D01*
X156814186Y-126946265D01*
X156814190Y-126946268D01*
X156945293Y-127033869D01*
X156945306Y-127033876D01*
X157053875Y-127078846D01*
X157090982Y-127094216D01*
X157245632Y-127124978D01*
X157245635Y-127124979D01*
X157245637Y-127124979D01*
X157403322Y-127124979D01*
X157443765Y-127116934D01*
X157475068Y-127110707D01*
X157544660Y-127116934D01*
X157586942Y-127144643D01*
X157629366Y-127187067D01*
X157629370Y-127187070D01*
X157760473Y-127274671D01*
X157760486Y-127274678D01*
X157866969Y-127318784D01*
X157906162Y-127335018D01*
X158060812Y-127365780D01*
X158060815Y-127365781D01*
X158060817Y-127365781D01*
X158218503Y-127365781D01*
X158218504Y-127365780D01*
X158373156Y-127335018D01*
X158518838Y-127274675D01*
X158649948Y-127187070D01*
X158761448Y-127075570D01*
X158849053Y-126944460D01*
X158909396Y-126798778D01*
X158940159Y-126644123D01*
X158940159Y-126528636D01*
X158959844Y-126461597D01*
X158976478Y-126440955D01*
X160726481Y-124690952D01*
X162374492Y-123042941D01*
X162435813Y-123009458D01*
X162505505Y-123014442D01*
X162561438Y-123056314D01*
X162577190Y-123087433D01*
X162577932Y-123087127D01*
X162640602Y-123238429D01*
X162640609Y-123238442D01*
X162728210Y-123369545D01*
X162728213Y-123369549D01*
X162839705Y-123481041D01*
X162839708Y-123481043D01*
X162839711Y-123481046D01*
X162876448Y-123505593D01*
X162921252Y-123559203D01*
X162931557Y-123608694D01*
X162931557Y-123691627D01*
X162962318Y-123846270D01*
X162962321Y-123846282D01*
X163022659Y-123991953D01*
X163022666Y-123991966D01*
X163110267Y-124123069D01*
X163110270Y-124123073D01*
X163221764Y-124234567D01*
X163221768Y-124234570D01*
X163352871Y-124322171D01*
X163352884Y-124322178D01*
X163498555Y-124382516D01*
X163498560Y-124382518D01*
X163522583Y-124387296D01*
X163548102Y-124392373D01*
X163610013Y-124424758D01*
X163644587Y-124485473D01*
X163640848Y-124555243D01*
X163611592Y-124601671D01*
X162029950Y-126183313D01*
X161968627Y-126216798D01*
X161918079Y-126217250D01*
X161828842Y-126199500D01*
X161671158Y-126199500D01*
X161671155Y-126199500D01*
X161516510Y-126230261D01*
X161516498Y-126230264D01*
X161370827Y-126290602D01*
X161370814Y-126290609D01*
X161239711Y-126378210D01*
X161239707Y-126378213D01*
X161128213Y-126489707D01*
X161128210Y-126489711D01*
X161040609Y-126620814D01*
X161040602Y-126620827D01*
X160980264Y-126766498D01*
X160980261Y-126766510D01*
X160949500Y-126921153D01*
X160949500Y-127078846D01*
X160980261Y-127233489D01*
X160980264Y-127233501D01*
X161040602Y-127379172D01*
X161040609Y-127379185D01*
X161128210Y-127510288D01*
X161128213Y-127510292D01*
X161239707Y-127621786D01*
X161239711Y-127621789D01*
X161370814Y-127709390D01*
X161370827Y-127709397D01*
X161444013Y-127739711D01*
X161516503Y-127769737D01*
X161671153Y-127800499D01*
X161671156Y-127800500D01*
X161671158Y-127800500D01*
X161828844Y-127800500D01*
X161828845Y-127800499D01*
X161983497Y-127769737D01*
X162129179Y-127709394D01*
X162260289Y-127621789D01*
X162349502Y-127532574D01*
X162357860Y-127528010D01*
X162375184Y-127512869D01*
X162379655Y-127510288D01*
X162431216Y-127480520D01*
X162448989Y-127462746D01*
X162510309Y-127429261D01*
X162580001Y-127434244D01*
X162635936Y-127476114D01*
X162660354Y-127541578D01*
X162656445Y-127582519D01*
X162649499Y-127608440D01*
X162649499Y-127670235D01*
X162647942Y-127675537D01*
X162649035Y-127680956D01*
X162638202Y-127708705D01*
X162629814Y-127737274D01*
X162628601Y-127739126D01*
X162540609Y-127870814D01*
X162540602Y-127870827D01*
X162480264Y-128016498D01*
X162480261Y-128016510D01*
X162449500Y-128171153D01*
X162449500Y-128328846D01*
X162480261Y-128483489D01*
X162480264Y-128483501D01*
X162540602Y-128629172D01*
X162540609Y-128629185D01*
X162628210Y-128760288D01*
X162628213Y-128760292D01*
X162739707Y-128871786D01*
X162739711Y-128871789D01*
X162870814Y-128959390D01*
X162870827Y-128959397D01*
X163016498Y-129019735D01*
X163016503Y-129019737D01*
X163171153Y-129050499D01*
X163171156Y-129050500D01*
X163171158Y-129050500D01*
X163328844Y-129050500D01*
X163328845Y-129050499D01*
X163483497Y-129019737D01*
X163629179Y-128959394D01*
X163760289Y-128871789D01*
X163871789Y-128760289D01*
X163959394Y-128629179D01*
X164019737Y-128483497D01*
X164050500Y-128328842D01*
X164050500Y-128171158D01*
X164050500Y-128171155D01*
X164050499Y-128171153D01*
X164019738Y-128016510D01*
X164019737Y-128016503D01*
X163978364Y-127916621D01*
X163970896Y-127847152D01*
X164002171Y-127784673D01*
X164005216Y-127781517D01*
X165574916Y-126211819D01*
X165636239Y-126178334D01*
X165662597Y-126175500D01*
X166255843Y-126175500D01*
X166255848Y-126175500D01*
X166357775Y-126165087D01*
X166522925Y-126110362D01*
X166671003Y-126019026D01*
X166794026Y-125896003D01*
X166885362Y-125747925D01*
X166940087Y-125582775D01*
X166950500Y-125480848D01*
X166950500Y-124894152D01*
X166940087Y-124792225D01*
X166885362Y-124627075D01*
X166885358Y-124627069D01*
X166885357Y-124627066D01*
X166794028Y-124479000D01*
X166794025Y-124478996D01*
X166671004Y-124355975D01*
X166671003Y-124355974D01*
X166670301Y-124355541D01*
X166669921Y-124355118D01*
X166665336Y-124351493D01*
X166665955Y-124350709D01*
X166623575Y-124303598D01*
X166612349Y-124234636D01*
X166640188Y-124170552D01*
X166665455Y-124148657D01*
X166665336Y-124148507D01*
X166668687Y-124145856D01*
X166670299Y-124144459D01*
X166671003Y-124144026D01*
X166794026Y-124021003D01*
X166885362Y-123872925D01*
X166940087Y-123707775D01*
X166950500Y-123605848D01*
X166950500Y-123019152D01*
X166940087Y-122917225D01*
X166885362Y-122752075D01*
X166885358Y-122752069D01*
X166885357Y-122752066D01*
X166794028Y-122604000D01*
X166794025Y-122603996D01*
X166671003Y-122480974D01*
X166670999Y-122480971D01*
X166522933Y-122389642D01*
X166522927Y-122389639D01*
X166522925Y-122389638D01*
X166522922Y-122389637D01*
X166357776Y-122334913D01*
X166255855Y-122324500D01*
X166255848Y-122324500D01*
X165528327Y-122324500D01*
X165507082Y-122318261D01*
X165484997Y-122316683D01*
X165474212Y-122308609D01*
X165461288Y-122304815D01*
X165446789Y-122288082D01*
X165429062Y-122274813D01*
X165424353Y-122262190D01*
X165415533Y-122252011D01*
X165412382Y-122230097D01*
X165404643Y-122209350D01*
X165407506Y-122196186D01*
X165405589Y-122182853D01*
X165414787Y-122162712D01*
X165419493Y-122141076D01*
X165432765Y-122123345D01*
X165434614Y-122119297D01*
X165440629Y-122112835D01*
X165468713Y-122084752D01*
X165468716Y-122084751D01*
X165580520Y-121972947D01*
X165630639Y-121886135D01*
X165659577Y-121836016D01*
X165700501Y-121683288D01*
X165700501Y-121525174D01*
X165700501Y-121517579D01*
X165700500Y-121517561D01*
X165700500Y-112921153D01*
X165949500Y-112921153D01*
X165949500Y-113078846D01*
X165980261Y-113233489D01*
X165980264Y-113233501D01*
X166040602Y-113379172D01*
X166040609Y-113379185D01*
X166128602Y-113510874D01*
X166149480Y-113577551D01*
X166149500Y-113579765D01*
X166149500Y-120488330D01*
X166149499Y-120488348D01*
X166149499Y-120654054D01*
X166149498Y-120654054D01*
X166190424Y-120806789D01*
X166190425Y-120806790D01*
X166205675Y-120833203D01*
X166205676Y-120833204D01*
X166269477Y-120943712D01*
X166269479Y-120943715D01*
X166269480Y-120943716D01*
X166381284Y-121055520D01*
X166381285Y-121055521D01*
X166401777Y-121076013D01*
X166415425Y-121089660D01*
X166448911Y-121150983D01*
X166449362Y-121153151D01*
X166480261Y-121308491D01*
X166480264Y-121308501D01*
X166540602Y-121454172D01*
X166540609Y-121454185D01*
X166628210Y-121585288D01*
X166628213Y-121585292D01*
X166739707Y-121696786D01*
X166739711Y-121696789D01*
X166870814Y-121784390D01*
X166870827Y-121784397D01*
X166995448Y-121836016D01*
X167016503Y-121844737D01*
X167171153Y-121875499D01*
X167171156Y-121875500D01*
X167171158Y-121875500D01*
X167328844Y-121875500D01*
X167328845Y-121875499D01*
X167483497Y-121844737D01*
X167629179Y-121784394D01*
X167760289Y-121696789D01*
X167871789Y-121585289D01*
X167959394Y-121454179D01*
X168019737Y-121308497D01*
X168050500Y-121153842D01*
X168050500Y-120996158D01*
X168050500Y-120996155D01*
X168050499Y-120996153D01*
X168040069Y-120943717D01*
X168019737Y-120841503D01*
X168019735Y-120841498D01*
X167959397Y-120695827D01*
X167959390Y-120695814D01*
X167871789Y-120564711D01*
X167871786Y-120564707D01*
X167760292Y-120453213D01*
X167760288Y-120453210D01*
X167629185Y-120365609D01*
X167629172Y-120365602D01*
X167483501Y-120305264D01*
X167483489Y-120305261D01*
X167450309Y-120298661D01*
X167388398Y-120266276D01*
X167353824Y-120205561D01*
X167350500Y-120177044D01*
X167350500Y-113579765D01*
X167370185Y-113512726D01*
X167371398Y-113510874D01*
X167459390Y-113379185D01*
X167459390Y-113379184D01*
X167459394Y-113379179D01*
X167464404Y-113367085D01*
X167519735Y-113233501D01*
X167519737Y-113233497D01*
X167550500Y-113078842D01*
X167550500Y-112921158D01*
X167550500Y-112921155D01*
X167550499Y-112921153D01*
X167540438Y-112870574D01*
X167519737Y-112766503D01*
X167519735Y-112766498D01*
X167459397Y-112620827D01*
X167459390Y-112620814D01*
X167371789Y-112489711D01*
X167371786Y-112489707D01*
X167260292Y-112378213D01*
X167260288Y-112378210D01*
X167129185Y-112290609D01*
X167129172Y-112290602D01*
X166983501Y-112230264D01*
X166983489Y-112230261D01*
X166828845Y-112199500D01*
X166828842Y-112199500D01*
X166671158Y-112199500D01*
X166671155Y-112199500D01*
X166516510Y-112230261D01*
X166516498Y-112230264D01*
X166370827Y-112290602D01*
X166370814Y-112290609D01*
X166239711Y-112378210D01*
X166239707Y-112378213D01*
X166128213Y-112489707D01*
X166128210Y-112489711D01*
X166040609Y-112620814D01*
X166040602Y-112620827D01*
X165980264Y-112766498D01*
X165980261Y-112766510D01*
X165949500Y-112921153D01*
X165700500Y-112921153D01*
X165700500Y-110624877D01*
X165720185Y-110557838D01*
X165736812Y-110537202D01*
X165764662Y-110509352D01*
X165825981Y-110475869D01*
X165828150Y-110475418D01*
X165886085Y-110463893D01*
X165983497Y-110444517D01*
X166129179Y-110384174D01*
X166260289Y-110296569D01*
X166371789Y-110185069D01*
X166459394Y-110053959D01*
X166519737Y-109908277D01*
X166550500Y-109753622D01*
X166550500Y-109595938D01*
X166550500Y-109595935D01*
X166550499Y-109595933D01*
X166519738Y-109441290D01*
X166519738Y-109441288D01*
X166519737Y-109441283D01*
X166519735Y-109441278D01*
X166459397Y-109295607D01*
X166459390Y-109295594D01*
X166371789Y-109164491D01*
X166371786Y-109164487D01*
X166260292Y-109052993D01*
X166260288Y-109052990D01*
X166129185Y-108965389D01*
X166129172Y-108965382D01*
X165983501Y-108905044D01*
X165983489Y-108905041D01*
X165828845Y-108874280D01*
X165828842Y-108874280D01*
X165671158Y-108874280D01*
X165671155Y-108874280D01*
X165516510Y-108905041D01*
X165516498Y-108905044D01*
X165370827Y-108965382D01*
X165370814Y-108965389D01*
X165239711Y-109052990D01*
X165239707Y-109052993D01*
X165128213Y-109164487D01*
X165128210Y-109164491D01*
X165040609Y-109295594D01*
X165040602Y-109295607D01*
X164980264Y-109441278D01*
X164980261Y-109441288D01*
X164949362Y-109596628D01*
X164940596Y-109613384D01*
X164936577Y-109631863D01*
X164917834Y-109656899D01*
X164916977Y-109658539D01*
X164915426Y-109660117D01*
X164870747Y-109704796D01*
X164809424Y-109738281D01*
X164739732Y-109733297D01*
X164735614Y-109731676D01*
X164631076Y-109688375D01*
X164631064Y-109688372D01*
X164476420Y-109657611D01*
X164476417Y-109657611D01*
X164324500Y-109657611D01*
X164257461Y-109637926D01*
X164211706Y-109585122D01*
X164200500Y-109533611D01*
X164200500Y-108947583D01*
X164220185Y-108880544D01*
X164236814Y-108859907D01*
X167708506Y-105388214D01*
X167708511Y-105388211D01*
X167718714Y-105378007D01*
X167718716Y-105378007D01*
X167830520Y-105266203D01*
X167908540Y-105131068D01*
X167909577Y-105129272D01*
X167950501Y-104976544D01*
X167950501Y-104818430D01*
X167950501Y-104810835D01*
X167950500Y-104810817D01*
X167950500Y-103950096D01*
X167970185Y-103883057D01*
X167986814Y-103862419D01*
X168913292Y-102935941D01*
X168974613Y-102902458D01*
X169044304Y-102907442D01*
X169100238Y-102949314D01*
X169122588Y-102999433D01*
X169147182Y-103123074D01*
X169147185Y-103123086D01*
X169200810Y-103252548D01*
X169208279Y-103322017D01*
X169200810Y-103347452D01*
X169147185Y-103476913D01*
X169147182Y-103476925D01*
X169114500Y-103641228D01*
X169114500Y-103808771D01*
X169147182Y-103973074D01*
X169147185Y-103973086D01*
X169200810Y-104102548D01*
X169208279Y-104172017D01*
X169200810Y-104197452D01*
X169147185Y-104326913D01*
X169147182Y-104326925D01*
X169114500Y-104491228D01*
X169114500Y-104658771D01*
X169147182Y-104823074D01*
X169147184Y-104823082D01*
X169211295Y-104977860D01*
X169304373Y-105117162D01*
X169404608Y-105217397D01*
X169438093Y-105278720D01*
X169433109Y-105348412D01*
X169420030Y-105373968D01*
X169352680Y-105474764D01*
X169352676Y-105474771D01*
X169281027Y-105647748D01*
X169281025Y-105647756D01*
X169244500Y-105831379D01*
X169244500Y-106018620D01*
X169281025Y-106202243D01*
X169281027Y-106202251D01*
X169352676Y-106375228D01*
X169352681Y-106375237D01*
X169456697Y-106530907D01*
X169456700Y-106530911D01*
X169589088Y-106663299D01*
X169589092Y-106663302D01*
X169744762Y-106767318D01*
X169744768Y-106767321D01*
X169744769Y-106767322D01*
X169917749Y-106838973D01*
X170088258Y-106872889D01*
X170101379Y-106875499D01*
X170101383Y-106875500D01*
X170101384Y-106875500D01*
X171788617Y-106875500D01*
X171788618Y-106875499D01*
X171972251Y-106838973D01*
X171978047Y-106836571D01*
X172047516Y-106829103D01*
X172109996Y-106860378D01*
X172145648Y-106920467D01*
X172149500Y-106951133D01*
X172149500Y-110449903D01*
X172129815Y-110516942D01*
X172113181Y-110537584D01*
X169312181Y-113338584D01*
X169250858Y-113372069D01*
X169181166Y-113367085D01*
X169125233Y-113325213D01*
X169100816Y-113259749D01*
X169100500Y-113250903D01*
X169100500Y-111800097D01*
X169109145Y-111770653D01*
X169115668Y-111740671D01*
X169119422Y-111735655D01*
X169120185Y-111733058D01*
X169136813Y-111712421D01*
X169264663Y-111584571D01*
X169325982Y-111551089D01*
X169328150Y-111550638D01*
X169386085Y-111539113D01*
X169483497Y-111519737D01*
X169629179Y-111459394D01*
X169760289Y-111371789D01*
X169871789Y-111260289D01*
X169959394Y-111129179D01*
X169963728Y-111118717D01*
X170019735Y-110983501D01*
X170019737Y-110983497D01*
X170050500Y-110828842D01*
X170050500Y-110671158D01*
X170050500Y-110671155D01*
X170050499Y-110671153D01*
X170019738Y-110516510D01*
X170019738Y-110516508D01*
X170019737Y-110516503D01*
X169989919Y-110444515D01*
X169959397Y-110370827D01*
X169959390Y-110370814D01*
X169871789Y-110239711D01*
X169871786Y-110239707D01*
X169760292Y-110128213D01*
X169760288Y-110128210D01*
X169629185Y-110040609D01*
X169629172Y-110040602D01*
X169483501Y-109980264D01*
X169483489Y-109980261D01*
X169328845Y-109949500D01*
X169328842Y-109949500D01*
X169171158Y-109949500D01*
X169171155Y-109949500D01*
X169016510Y-109980261D01*
X169016498Y-109980264D01*
X168870827Y-110040602D01*
X168870814Y-110040609D01*
X168739711Y-110128210D01*
X168739707Y-110128213D01*
X168628213Y-110239707D01*
X168628210Y-110239711D01*
X168540609Y-110370814D01*
X168540602Y-110370827D01*
X168480264Y-110516498D01*
X168480261Y-110516508D01*
X168449361Y-110671850D01*
X168416976Y-110733761D01*
X168415425Y-110735339D01*
X168019481Y-111131282D01*
X168019479Y-111131284D01*
X168000014Y-111165000D01*
X167991786Y-111179252D01*
X167940423Y-111268215D01*
X167899499Y-111420943D01*
X167899499Y-111420945D01*
X167899499Y-111589046D01*
X167899500Y-111589059D01*
X167899500Y-116170234D01*
X167879815Y-116237273D01*
X167878602Y-116239125D01*
X167790609Y-116370814D01*
X167790602Y-116370827D01*
X167730264Y-116516498D01*
X167730261Y-116516510D01*
X167699500Y-116671153D01*
X167699500Y-116828846D01*
X167730261Y-116983489D01*
X167730264Y-116983501D01*
X167790602Y-117129172D01*
X167790609Y-117129185D01*
X167878210Y-117260288D01*
X167878213Y-117260292D01*
X167989707Y-117371786D01*
X167989711Y-117371789D01*
X168120814Y-117459390D01*
X168120827Y-117459397D01*
X168234483Y-117506474D01*
X168266503Y-117519737D01*
X168331147Y-117532595D01*
X168421849Y-117550638D01*
X168483760Y-117583023D01*
X168485339Y-117584574D01*
X168863181Y-117962416D01*
X168896666Y-118023739D01*
X168899500Y-118050097D01*
X168899500Y-119670234D01*
X168879815Y-119737273D01*
X168878602Y-119739125D01*
X168790609Y-119870814D01*
X168790602Y-119870827D01*
X168730264Y-120016498D01*
X168730261Y-120016510D01*
X168699500Y-120171153D01*
X168699500Y-120328846D01*
X168730261Y-120483489D01*
X168730264Y-120483501D01*
X168790602Y-120629172D01*
X168790609Y-120629185D01*
X168878210Y-120760288D01*
X168878213Y-120760292D01*
X168989707Y-120871786D01*
X168989711Y-120871789D01*
X169120814Y-120959390D01*
X169120827Y-120959397D01*
X169266498Y-121019735D01*
X169266503Y-121019737D01*
X169421153Y-121050499D01*
X169421156Y-121050500D01*
X169421158Y-121050500D01*
X169578844Y-121050500D01*
X169578845Y-121050499D01*
X169733497Y-121019737D01*
X169879179Y-120959394D01*
X170010289Y-120871789D01*
X170121789Y-120760289D01*
X170209394Y-120629179D01*
X170269737Y-120483497D01*
X170300500Y-120328842D01*
X170300500Y-120171158D01*
X170300500Y-120171155D01*
X170300499Y-120171153D01*
X170274284Y-120039362D01*
X170269737Y-120016503D01*
X170216078Y-119886957D01*
X170209397Y-119870827D01*
X170209390Y-119870814D01*
X170121398Y-119739125D01*
X170100520Y-119672447D01*
X170100500Y-119670234D01*
X170100500Y-117839060D01*
X170100501Y-117839047D01*
X170100501Y-117670944D01*
X170069534Y-117555375D01*
X170059577Y-117518216D01*
X170025618Y-117459397D01*
X169980524Y-117381290D01*
X169980518Y-117381282D01*
X169334573Y-116735337D01*
X169301088Y-116674014D01*
X169300637Y-116671847D01*
X169269738Y-116516510D01*
X169269737Y-116516503D01*
X169269735Y-116516498D01*
X169209397Y-116370827D01*
X169209390Y-116370814D01*
X169121398Y-116239125D01*
X169100520Y-116172447D01*
X169100500Y-116170234D01*
X169100500Y-115383811D01*
X169120185Y-115316772D01*
X169172989Y-115271017D01*
X169224500Y-115259811D01*
X169228844Y-115259811D01*
X169228845Y-115259810D01*
X169383497Y-115229048D01*
X169529179Y-115168705D01*
X169660289Y-115081100D01*
X169771789Y-114969600D01*
X169859394Y-114838490D01*
X169919737Y-114692808D01*
X169950500Y-114538153D01*
X169950500Y-114450096D01*
X169970185Y-114383057D01*
X169986814Y-114362420D01*
X173108506Y-111240727D01*
X173108511Y-111240724D01*
X173118714Y-111230520D01*
X173118716Y-111230520D01*
X173230520Y-111118716D01*
X173285125Y-111024137D01*
X173309577Y-110981785D01*
X173350501Y-110829057D01*
X173350501Y-110670943D01*
X173350501Y-110663348D01*
X173350500Y-110663330D01*
X173350500Y-106901427D01*
X173370185Y-106834388D01*
X173422989Y-106788633D01*
X173492147Y-106778689D01*
X173521950Y-106786865D01*
X173647749Y-106838973D01*
X173818258Y-106872889D01*
X173831379Y-106875499D01*
X173831383Y-106875500D01*
X173831384Y-106875500D01*
X174818617Y-106875500D01*
X174818617Y-106875499D01*
X174946149Y-106850132D01*
X174972985Y-106852533D01*
X174999909Y-106851326D01*
X175007265Y-106855600D01*
X175015740Y-106856359D01*
X175037019Y-106872889D01*
X175060321Y-106886429D01*
X175064199Y-106894003D01*
X175070917Y-106899222D01*
X175079881Y-106924632D01*
X175092164Y-106948621D01*
X175092720Y-106961023D01*
X175094162Y-106965111D01*
X175093745Y-106983880D01*
X175091492Y-107006800D01*
X175091104Y-107010251D01*
X174921284Y-108350974D01*
X174920800Y-108354411D01*
X174713507Y-109689895D01*
X174712926Y-109693318D01*
X174468338Y-111022421D01*
X174467662Y-111025826D01*
X174185954Y-112347597D01*
X174185183Y-112350982D01*
X173866583Y-113664350D01*
X173865717Y-113667712D01*
X173510486Y-114971604D01*
X173509527Y-114974941D01*
X173117922Y-116268414D01*
X173116870Y-116271722D01*
X172689205Y-117553736D01*
X172688060Y-117557014D01*
X172224679Y-118826534D01*
X172223443Y-118829778D01*
X171724708Y-120085822D01*
X171723382Y-120089031D01*
X171189668Y-121330645D01*
X171188252Y-121333814D01*
X170620019Y-122559938D01*
X170618516Y-122563068D01*
X170016131Y-123772902D01*
X170014540Y-123775987D01*
X169378567Y-124968400D01*
X169376891Y-124971440D01*
X168707761Y-126145627D01*
X168706000Y-126148619D01*
X168004274Y-127303591D01*
X168002430Y-127306533D01*
X167268623Y-128441445D01*
X167266697Y-128444333D01*
X166501438Y-129558211D01*
X166499432Y-129561045D01*
X165703276Y-130653081D01*
X165701192Y-130655857D01*
X164874781Y-131725173D01*
X164872620Y-131727890D01*
X164016589Y-132773663D01*
X164014352Y-132776319D01*
X163129406Y-133797687D01*
X163127097Y-133800278D01*
X162213855Y-134796528D01*
X162211473Y-134799055D01*
X161460982Y-135573093D01*
X161400183Y-135607521D01*
X161366075Y-135610636D01*
X154064472Y-135263870D01*
X153998441Y-135241028D01*
X153971720Y-135215159D01*
X153654688Y-134799055D01*
X150300332Y-130396463D01*
X150275362Y-130331209D01*
X150275768Y-130307244D01*
X150361155Y-129559642D01*
X150861208Y-125181442D01*
X150888373Y-125117071D01*
X150896562Y-125107998D01*
X151129497Y-124874282D01*
X151876487Y-124074101D01*
X152596956Y-123249958D01*
X153290133Y-122402733D01*
X153955281Y-121533329D01*
X154591691Y-120642673D01*
X155198683Y-119731715D01*
X155775611Y-118801425D01*
X156321860Y-117852796D01*
X156836846Y-116886838D01*
X157320022Y-115904582D01*
X157770872Y-114907076D01*
X158188915Y-113895381D01*
X158573706Y-112870578D01*
X158924834Y-111833759D01*
X159241925Y-110786029D01*
X159524640Y-109728505D01*
X159772680Y-108662315D01*
X159985778Y-107588595D01*
X160163708Y-106508490D01*
X160306281Y-105423152D01*
X160343711Y-105042285D01*
X160413341Y-104333762D01*
X160413343Y-104333738D01*
X160484782Y-103241410D01*
X160520520Y-102147331D01*
X160520500Y-101600000D01*
X160520500Y-101559861D01*
X160520519Y-101052669D01*
X160484781Y-99958590D01*
X160413342Y-98866262D01*
X160400231Y-98732852D01*
X160306282Y-97776868D01*
X160306281Y-97776866D01*
X160306280Y-97776848D01*
X160163707Y-96691510D01*
X159985777Y-95611405D01*
X159772679Y-94537686D01*
X159524639Y-93471495D01*
X159241924Y-92413972D01*
X158924833Y-91366241D01*
X158573705Y-90329422D01*
X158188914Y-89304619D01*
X157770871Y-88292925D01*
X157320021Y-87295418D01*
X156836846Y-86313162D01*
X156798855Y-86241902D01*
X159789500Y-86241902D01*
X159789500Y-86478097D01*
X159826446Y-86711368D01*
X159899433Y-86935996D01*
X160006657Y-87146433D01*
X160145483Y-87337510D01*
X160312490Y-87504517D01*
X160503567Y-87643343D01*
X160602991Y-87694002D01*
X160714003Y-87750566D01*
X160714005Y-87750566D01*
X160714008Y-87750568D01*
X160834412Y-87789689D01*
X160938631Y-87823553D01*
X161171903Y-87860500D01*
X161171908Y-87860500D01*
X161408097Y-87860500D01*
X161641368Y-87823553D01*
X161865992Y-87750568D01*
X162076433Y-87643343D01*
X162267510Y-87504517D01*
X162434517Y-87337510D01*
X162573343Y-87146433D01*
X162680568Y-86935992D01*
X162753553Y-86711368D01*
X162760261Y-86669018D01*
X162790500Y-86478097D01*
X162790500Y-86241902D01*
X162753553Y-86008631D01*
X162715169Y-85890500D01*
X162680568Y-85784008D01*
X162680566Y-85784005D01*
X162680566Y-85784003D01*
X162573342Y-85573566D01*
X162434517Y-85382490D01*
X162267510Y-85215483D01*
X162076433Y-85076657D01*
X162040629Y-85058414D01*
X161865996Y-84969433D01*
X161641368Y-84896446D01*
X161408097Y-84859500D01*
X161408092Y-84859500D01*
X161171908Y-84859500D01*
X161171903Y-84859500D01*
X160938631Y-84896446D01*
X160714003Y-84969433D01*
X160503566Y-85076657D01*
X160394550Y-85155862D01*
X160312490Y-85215483D01*
X160312488Y-85215485D01*
X160312487Y-85215485D01*
X160145485Y-85382487D01*
X160145485Y-85382488D01*
X160145483Y-85382490D01*
X160085862Y-85464550D01*
X160006657Y-85573566D01*
X159899433Y-85784003D01*
X159826446Y-86008631D01*
X159789500Y-86241902D01*
X156798855Y-86241902D01*
X156321859Y-85347205D01*
X155775610Y-84398576D01*
X155198682Y-83468286D01*
X154591690Y-82557327D01*
X154591684Y-82557318D01*
X153955278Y-81666666D01*
X153578474Y-81174152D01*
X153523376Y-81102135D01*
X167649500Y-81102135D01*
X167649500Y-82897870D01*
X167649501Y-82897876D01*
X167655908Y-82957483D01*
X167706202Y-83092328D01*
X167706206Y-83092335D01*
X167792452Y-83207544D01*
X167792455Y-83207547D01*
X167907664Y-83293793D01*
X167907671Y-83293797D01*
X168039082Y-83342810D01*
X168095016Y-83384681D01*
X168119433Y-83450145D01*
X168104582Y-83518418D01*
X168083431Y-83546673D01*
X167969889Y-83660215D01*
X167844951Y-83832179D01*
X167748444Y-84021585D01*
X167682753Y-84223760D01*
X167659042Y-84373465D01*
X167649500Y-84433713D01*
X167649500Y-84646287D01*
X167682754Y-84856243D01*
X167683812Y-84859500D01*
X167748444Y-85058414D01*
X167844951Y-85247820D01*
X167969890Y-85419786D01*
X168120213Y-85570109D01*
X168292179Y-85695048D01*
X168292181Y-85695049D01*
X168292184Y-85695051D01*
X168481588Y-85791557D01*
X168683757Y-85857246D01*
X168893713Y-85890500D01*
X168893714Y-85890500D01*
X169106286Y-85890500D01*
X169106287Y-85890500D01*
X169316243Y-85857246D01*
X169518412Y-85791557D01*
X169707816Y-85695051D01*
X169729789Y-85679086D01*
X169879786Y-85570109D01*
X169879788Y-85570106D01*
X169879792Y-85570104D01*
X170030104Y-85419792D01*
X170030106Y-85419788D01*
X170030109Y-85419786D01*
X170155048Y-85247820D01*
X170155047Y-85247820D01*
X170155051Y-85247816D01*
X170251557Y-85058412D01*
X170317246Y-84856243D01*
X170350500Y-84646287D01*
X170350500Y-84433713D01*
X170317246Y-84223757D01*
X170251557Y-84021588D01*
X170155051Y-83832184D01*
X170155049Y-83832181D01*
X170155048Y-83832179D01*
X170030109Y-83660213D01*
X169916569Y-83546673D01*
X169883084Y-83485350D01*
X169888068Y-83415658D01*
X169929940Y-83359725D01*
X169960915Y-83342810D01*
X170092331Y-83293796D01*
X170207546Y-83207546D01*
X170293796Y-83092331D01*
X170344091Y-82957483D01*
X170350500Y-82897873D01*
X170350499Y-81102128D01*
X170344091Y-81042517D01*
X170293796Y-80907669D01*
X170293795Y-80907668D01*
X170293793Y-80907664D01*
X170207547Y-80792455D01*
X170207544Y-80792452D01*
X170092335Y-80706206D01*
X170092328Y-80706202D01*
X169957482Y-80655908D01*
X169957483Y-80655908D01*
X169897883Y-80649501D01*
X169897881Y-80649500D01*
X169897873Y-80649500D01*
X169897864Y-80649500D01*
X168102129Y-80649500D01*
X168102123Y-80649501D01*
X168042516Y-80655908D01*
X167907671Y-80706202D01*
X167907664Y-80706206D01*
X167792455Y-80792452D01*
X167792452Y-80792455D01*
X167706206Y-80907664D01*
X167706202Y-80907671D01*
X167655908Y-81042517D01*
X167649501Y-81102116D01*
X167649501Y-81102123D01*
X167649500Y-81102135D01*
X153523376Y-81102135D01*
X153290137Y-80797272D01*
X153174477Y-80655909D01*
X152596955Y-79950043D01*
X152596945Y-79950031D01*
X151876499Y-79125913D01*
X151444178Y-78662808D01*
X151129496Y-78325719D01*
X151035691Y-78231599D01*
X150896579Y-78092019D01*
X150863197Y-78030640D01*
X150861208Y-78018556D01*
X150849005Y-77911714D01*
X150275768Y-72892752D01*
X150287718Y-72823914D01*
X150300329Y-72803539D01*
X153971722Y-67984837D01*
X154028007Y-67943443D01*
X154064469Y-67936128D01*
X161366074Y-67589362D01*
X161433971Y-67605844D01*
G37*
%TD.AperFunction*%
%TD*%
M02*
