%TF.GenerationSoftware,KiCad,Pcbnew,9.0.7-9.0.7~ubuntu22.04.1*%
%TF.CreationDate,2026-02-13T16:19:20-05:00*%
%TF.ProjectId,base,62617365-2e6b-4696-9361-645f70636258,rev?*%
%TF.SameCoordinates,Original*%
%TF.FileFunction,Copper,L2,Bot*%
%TF.FilePolarity,Positive*%
%FSLAX46Y46*%
G04 Gerber Fmt 4.6, Leading zero omitted, Abs format (unit mm)*
G04 Created by KiCad (PCBNEW 9.0.7-9.0.7~ubuntu22.04.1) date 2026-02-13 16:19:20*
%MOMM*%
%LPD*%
G01*
G04 APERTURE LIST*
G04 Aperture macros list*
%AMRoundRect*
0 Rectangle with rounded corners*
0 $1 Rounding radius*
0 $2 $3 $4 $5 $6 $7 $8 $9 X,Y pos of 4 corners*
0 Add a 4 corners polygon primitive as box body*
4,1,4,$2,$3,$4,$5,$6,$7,$8,$9,$2,$3,0*
0 Add four circle primitives for the rounded corners*
1,1,$1+$1,$2,$3*
1,1,$1+$1,$4,$5*
1,1,$1+$1,$6,$7*
1,1,$1+$1,$8,$9*
0 Add four rect primitives between the rounded corners*
20,1,$1+$1,$2,$3,$4,$5,0*
20,1,$1+$1,$4,$5,$6,$7,0*
20,1,$1+$1,$6,$7,$8,$9,0*
20,1,$1+$1,$8,$9,$2,$3,0*%
G04 Aperture macros list end*
%TA.AperFunction,ComponentPad*%
%ADD10C,2.000000*%
%TD*%
%TA.AperFunction,ComponentPad*%
%ADD11R,1.000000X1.000000*%
%TD*%
%TA.AperFunction,ComponentPad*%
%ADD12C,1.000000*%
%TD*%
%TA.AperFunction,ComponentPad*%
%ADD13R,1.700000X1.700000*%
%TD*%
%TA.AperFunction,ComponentPad*%
%ADD14C,1.700000*%
%TD*%
%TA.AperFunction,ComponentPad*%
%ADD15C,5.500000*%
%TD*%
%TA.AperFunction,SMDPad,CuDef*%
%ADD16RoundRect,0.200000X0.200000X0.275000X-0.200000X0.275000X-0.200000X-0.275000X0.200000X-0.275000X0*%
%TD*%
%TA.AperFunction,SMDPad,CuDef*%
%ADD17RoundRect,0.225000X0.250000X-0.225000X0.250000X0.225000X-0.250000X0.225000X-0.250000X-0.225000X0*%
%TD*%
%TA.AperFunction,SMDPad,CuDef*%
%ADD18RoundRect,0.225000X-0.225000X-0.250000X0.225000X-0.250000X0.225000X0.250000X-0.225000X0.250000X0*%
%TD*%
%TA.AperFunction,SMDPad,CuDef*%
%ADD19RoundRect,0.218750X0.381250X-0.218750X0.381250X0.218750X-0.381250X0.218750X-0.381250X-0.218750X0*%
%TD*%
%TA.AperFunction,SMDPad,CuDef*%
%ADD20RoundRect,0.062500X-0.062500X0.337500X-0.062500X-0.337500X0.062500X-0.337500X0.062500X0.337500X0*%
%TD*%
%TA.AperFunction,SMDPad,CuDef*%
%ADD21RoundRect,0.062500X-0.337500X0.062500X-0.337500X-0.062500X0.337500X-0.062500X0.337500X0.062500X0*%
%TD*%
%TA.AperFunction,HeatsinkPad*%
%ADD22R,3.600000X3.600000*%
%TD*%
%TA.AperFunction,SMDPad,CuDef*%
%ADD23RoundRect,0.150000X0.150000X0.450000X-0.150000X0.450000X-0.150000X-0.450000X0.150000X-0.450000X0*%
%TD*%
%TA.AperFunction,SMDPad,CuDef*%
%ADD24RoundRect,0.200000X0.275000X-0.200000X0.275000X0.200000X-0.275000X0.200000X-0.275000X-0.200000X0*%
%TD*%
%TA.AperFunction,SMDPad,CuDef*%
%ADD25RoundRect,0.225000X-0.250000X0.225000X-0.250000X-0.225000X0.250000X-0.225000X0.250000X0.225000X0*%
%TD*%
%TA.AperFunction,SMDPad,CuDef*%
%ADD26RoundRect,0.225000X0.225000X0.250000X-0.225000X0.250000X-0.225000X-0.250000X0.225000X-0.250000X0*%
%TD*%
%TA.AperFunction,ComponentPad*%
%ADD27C,0.700000*%
%TD*%
%TA.AperFunction,ComponentPad*%
%ADD28O,1.700000X0.900000*%
%TD*%
%TA.AperFunction,ComponentPad*%
%ADD29O,2.400000X0.900000*%
%TD*%
%TA.AperFunction,SMDPad,CuDef*%
%ADD30RoundRect,0.200000X-0.275000X0.200000X-0.275000X-0.200000X0.275000X-0.200000X0.275000X0.200000X0*%
%TD*%
%TA.AperFunction,SMDPad,CuDef*%
%ADD31RoundRect,0.250000X-0.350000X0.450000X-0.350000X-0.450000X0.350000X-0.450000X0.350000X0.450000X0*%
%TD*%
%TA.AperFunction,SMDPad,CuDef*%
%ADD32RoundRect,0.200000X-0.200000X-0.275000X0.200000X-0.275000X0.200000X0.275000X-0.200000X0.275000X0*%
%TD*%
%TA.AperFunction,SMDPad,CuDef*%
%ADD33RoundRect,0.375000X0.625000X0.375000X-0.625000X0.375000X-0.625000X-0.375000X0.625000X-0.375000X0*%
%TD*%
%TA.AperFunction,SMDPad,CuDef*%
%ADD34RoundRect,0.500000X0.500000X1.400000X-0.500000X1.400000X-0.500000X-1.400000X0.500000X-1.400000X0*%
%TD*%
%TA.AperFunction,ViaPad*%
%ADD35C,0.600000*%
%TD*%
%TA.AperFunction,Conductor*%
%ADD36C,0.400000*%
%TD*%
%TA.AperFunction,Conductor*%
%ADD37C,0.200000*%
%TD*%
G04 APERTURE END LIST*
D10*
%TO.P,TP1,1,1*%
%TO.N,Net-(C8-Pad1)*%
X161290000Y-86360000D03*
%TD*%
D11*
%TO.P,J1,1,Pin_1*%
%TO.N,+3.3V*%
X170270000Y-93810000D03*
D12*
%TO.P,J1,2,Pin_2*%
%TO.N,/SWDIO*%
X169000000Y-93810000D03*
%TO.P,J1,3,Pin_3*%
%TO.N,GND*%
X170270000Y-92540000D03*
%TO.P,J1,4,Pin_4*%
%TO.N,/SWCLK*%
X169000000Y-92540000D03*
%TO.P,J1,5,Pin_5*%
%TO.N,GND*%
X170270000Y-91270000D03*
%TO.P,J1,6,Pin_6*%
%TO.N,unconnected-(J1-Pin_6-Pad6)*%
X169000000Y-91270000D03*
%TO.P,J1,7,Pin_7*%
%TO.N,unconnected-(J1-Pin_7-Pad7)*%
X170270000Y-90000000D03*
%TO.P,J1,8,Pin_8*%
%TO.N,unconnected-(J1-Pin_8-Pad8)*%
X169000000Y-90000000D03*
%TO.P,J1,9,Pin_9*%
%TO.N,GND*%
X170270000Y-88730000D03*
%TO.P,J1,10,Pin_10*%
%TO.N,/~{SRST}*%
X169000000Y-88730000D03*
%TD*%
D13*
%TO.P,J4,1,Pin_1*%
%TO.N,/TXD*%
X169000000Y-82000000D03*
D14*
%TO.P,J4,2,Pin_2*%
%TO.N,/RXD*%
X169000000Y-84540000D03*
%TD*%
D15*
%TO.P,H3,1,1*%
%TO.N,Net-(C7-Pad1)*%
X156185832Y-72414168D03*
%TD*%
%TO.P,H2,1,1*%
%TO.N,Net-(C7-Pad1)*%
X156185832Y-130785832D03*
%TD*%
D16*
%TO.P,R6,1*%
%TO.N,Net-(R3-Pad1)*%
X165290000Y-119380000D03*
%TO.P,R6,2*%
%TO.N,/AIN1*%
X163640000Y-119380000D03*
%TD*%
D17*
%TO.P,C11,1*%
%TO.N,Net-(U1-PA00)*%
X158750000Y-116345000D03*
%TO.P,C11,2*%
%TO.N,GND*%
X158750000Y-114795000D03*
%TD*%
D18*
%TO.P,C8,1*%
%TO.N,Net-(C8-Pad1)*%
X163690000Y-88900000D03*
%TO.P,C8,2*%
%TO.N,/AIN0*%
X165240000Y-88900000D03*
%TD*%
D19*
%TO.P,L1,1*%
%TO.N,GND*%
X162560000Y-78532500D03*
%TO.P,L1,2*%
%TO.N,Net-(C7-Pad1)*%
X162560000Y-76407500D03*
%TD*%
D18*
%TO.P,C6,1*%
%TO.N,Net-(U1-PA15)*%
X164935000Y-127635000D03*
%TO.P,C6,2*%
%TO.N,GND*%
X166485000Y-127635000D03*
%TD*%
D20*
%TO.P,U1,1,PA00*%
%TO.N,Net-(U1-PA00)*%
X158360000Y-120260000D03*
%TO.P,U1,2,PA01*%
%TO.N,Net-(U1-PA01)*%
X158860000Y-120260000D03*
%TO.P,U1,3,PA02*%
%TO.N,unconnected-(U1-PA02-Pad3)*%
X159360000Y-120260000D03*
%TO.P,U1,4,PA03*%
%TO.N,unconnected-(U1-PA03-Pad4)*%
X159860000Y-120260000D03*
%TO.P,U1,5,PA04*%
%TO.N,/AIN0*%
X160360000Y-120260000D03*
%TO.P,U1,6,PA05*%
%TO.N,/AIN1*%
X160860000Y-120260000D03*
%TO.P,U1,7,PA06*%
%TO.N,unconnected-(U1-PA06-Pad7)*%
X161360000Y-120260000D03*
%TO.P,U1,8,PA07*%
%TO.N,unconnected-(U1-PA07-Pad8)*%
X161860000Y-120260000D03*
D21*
%TO.P,U1,9,VDDANA*%
%TO.N,Net-(U1-VDDANA)*%
X162560000Y-120960000D03*
%TO.P,U1,10,GND*%
%TO.N,GND*%
X162560000Y-121460000D03*
%TO.P,U1,11,PA08*%
%TO.N,unconnected-(U1-PA08-Pad11)*%
X162560000Y-121960000D03*
%TO.P,U1,12,PA09*%
%TO.N,unconnected-(U1-PA09-Pad12)*%
X162560000Y-122460000D03*
%TO.P,U1,13,PA10*%
%TO.N,/TXD*%
X162560000Y-122960000D03*
%TO.P,U1,14,PA11*%
%TO.N,/RXD*%
X162560000Y-123460000D03*
%TO.P,U1,15,PA14*%
%TO.N,Net-(U1-PA14)*%
X162560000Y-123960000D03*
%TO.P,U1,16,PA15*%
%TO.N,Net-(U1-PA15)*%
X162560000Y-124460000D03*
D20*
%TO.P,U1,17,PA16*%
%TO.N,unconnected-(U1-PA16-Pad17)*%
X161860000Y-125160000D03*
%TO.P,U1,18,PA17*%
%TO.N,Net-(D2-A)*%
X161360000Y-125160000D03*
%TO.P,U1,19,PA18*%
%TO.N,unconnected-(U1-PA18-Pad19)*%
X160860000Y-125160000D03*
%TO.P,U1,20,PA19*%
%TO.N,unconnected-(U1-PA19-Pad20)*%
X160360000Y-125160000D03*
%TO.P,U1,21,PA22*%
%TO.N,unconnected-(U1-PA22-Pad21)*%
X159860000Y-125160000D03*
%TO.P,U1,22,PA23*%
%TO.N,unconnected-(U1-PA23-Pad22)*%
X159360000Y-125160000D03*
%TO.P,U1,23,PA24*%
%TO.N,/D-*%
X158860000Y-125160000D03*
%TO.P,U1,24,PA25*%
%TO.N,/D+*%
X158360000Y-125160000D03*
D21*
%TO.P,U1,25,PA27*%
%TO.N,unconnected-(U1-PA27-Pad25)*%
X157660000Y-124460000D03*
%TO.P,U1,26,~{RESET}*%
%TO.N,/~{SRST}*%
X157660000Y-123960000D03*
%TO.P,U1,27,PA28*%
%TO.N,unconnected-(U1-PA28-Pad27)*%
X157660000Y-123460000D03*
%TO.P,U1,28,GND*%
%TO.N,GND*%
X157660000Y-122960000D03*
%TO.P,U1,29,VDDCORE*%
%TO.N,Net-(U1-VDDCORE)*%
X157660000Y-122460000D03*
%TO.P,U1,30,VDDIN*%
%TO.N,+3.3V*%
X157660000Y-121960000D03*
%TO.P,U1,31,PA30*%
%TO.N,/SWCLK*%
X157660000Y-121460000D03*
%TO.P,U1,32,PA31*%
%TO.N,/SWDIO*%
X157660000Y-120960000D03*
D22*
%TO.P,U1,33,EP*%
%TO.N,GND*%
X160110000Y-122710000D03*
%TD*%
D23*
%TO.P,Y1,1,1*%
%TO.N,Net-(U1-PA01)*%
X159350000Y-118110000D03*
%TO.P,Y1,2,2*%
%TO.N,Net-(U1-PA00)*%
X158150000Y-118110000D03*
%TD*%
D24*
%TO.P,R4,1*%
%TO.N,+3.3V*%
X168750000Y-121075000D03*
%TO.P,R4,2*%
%TO.N,Net-(R3-Pad1)*%
X168750000Y-119425000D03*
%TD*%
D25*
%TO.P,C4,1*%
%TO.N,Net-(U1-VDDCORE)*%
X155250000Y-123725000D03*
%TO.P,C4,2*%
%TO.N,GND*%
X155250000Y-125275000D03*
%TD*%
D18*
%TO.P,R16,1*%
%TO.N,Net-(D2-K)*%
X163475000Y-129750000D03*
%TO.P,R16,2*%
%TO.N,GND*%
X165025000Y-129750000D03*
%TD*%
D26*
%TO.P,C1,1*%
%TO.N,+5V*%
X170955000Y-117475000D03*
%TO.P,C1,2*%
%TO.N,GND*%
X169405000Y-117475000D03*
%TD*%
D25*
%TO.P,C18,1*%
%TO.N,GND*%
X167005000Y-117970000D03*
%TO.P,C18,2*%
%TO.N,Net-(U1-VDDANA)*%
X167005000Y-119520000D03*
%TD*%
D27*
%TO.P,J5,A1,GND*%
%TO.N,GND*%
X169965000Y-98625000D03*
%TO.P,J5,A4,VBUS*%
%TO.N,+5V*%
X169965000Y-99475000D03*
%TO.P,J5,A5,CC1*%
%TO.N,Net-(J5-CC1)*%
X169965000Y-100325000D03*
%TO.P,J5,A6,D+*%
%TO.N,/D+*%
X169965000Y-101175000D03*
%TO.P,J5,A7,D-*%
%TO.N,/D-*%
X169965000Y-102025000D03*
%TO.P,J5,A8,SBU1*%
%TO.N,unconnected-(J5-SBU1-PadA8)*%
X169965000Y-102875000D03*
%TO.P,J5,A9,VBUS*%
%TO.N,+5V*%
X169965000Y-103725000D03*
%TO.P,J5,A12,GND*%
%TO.N,GND*%
X169965000Y-104575000D03*
%TO.P,J5,B1,GND*%
X171315000Y-104575000D03*
%TO.P,J5,B4,VBUS*%
%TO.N,+5V*%
X171315000Y-103725000D03*
%TO.P,J5,B5,CC2*%
%TO.N,Net-(J5-CC2)*%
X171315000Y-102875000D03*
%TO.P,J5,B6,D+*%
%TO.N,/D+*%
X171315000Y-102025000D03*
%TO.P,J5,B7,D-*%
%TO.N,/D-*%
X171315000Y-101175000D03*
%TO.P,J5,B8,SBU2*%
%TO.N,unconnected-(J5-SBU2-PadB8)*%
X171315000Y-100325000D03*
%TO.P,J5,B9,VBUS*%
%TO.N,+5V*%
X171315000Y-99475000D03*
%TO.P,J5,B12,GND*%
%TO.N,GND*%
X171315000Y-98625000D03*
D28*
%TO.P,J5,S1,SHIELD*%
%TO.N,unconnected-(J5-SHIELD-PadS1)*%
X174325000Y-97275000D03*
D29*
%TO.N,unconnected-(J5-SHIELD-PadS1)_3*%
X170945000Y-97275000D03*
D28*
%TO.N,unconnected-(J5-SHIELD-PadS1)_2*%
X174325000Y-105925000D03*
D29*
%TO.N,unconnected-(J5-SHIELD-PadS1)_1*%
X170945000Y-105925000D03*
%TD*%
D17*
%TO.P,C2,1*%
%TO.N,+3.3V*%
X173355000Y-112535000D03*
%TO.P,C2,2*%
%TO.N,GND*%
X173355000Y-110985000D03*
%TD*%
D16*
%TO.P,R8,1*%
%TO.N,Net-(J5-CC2)*%
X172910000Y-107950000D03*
%TO.P,R8,2*%
%TO.N,GND*%
X171260000Y-107950000D03*
%TD*%
D17*
%TO.P,C12,1*%
%TO.N,Net-(U1-PA01)*%
X160655000Y-116345000D03*
%TO.P,C12,2*%
%TO.N,GND*%
X160655000Y-114795000D03*
%TD*%
D25*
%TO.P,C5,1*%
%TO.N,Net-(U1-PA14)*%
X168250000Y-122975000D03*
%TO.P,C5,2*%
%TO.N,GND*%
X168250000Y-124525000D03*
%TD*%
D30*
%TO.P,R3,1*%
%TO.N,Net-(R3-Pad1)*%
X170500000Y-119425000D03*
%TO.P,R3,2*%
%TO.N,GND*%
X170500000Y-121075000D03*
%TD*%
D31*
%TO.P,Y2,1,1*%
%TO.N,Net-(U1-PA14)*%
X166560000Y-123360000D03*
%TO.P,Y2,2,G*%
%TO.N,GND*%
X166560000Y-125560000D03*
%TO.P,Y2,3,3*%
%TO.N,Net-(U1-PA15)*%
X164860000Y-125560000D03*
%TO.P,Y2,4,G*%
%TO.N,GND*%
X164860000Y-123360000D03*
%TD*%
D18*
%TO.P,C7,1*%
%TO.N,Net-(C7-Pad1)*%
X162420000Y-74295000D03*
%TO.P,C7,2*%
%TO.N,/AIN1*%
X163970000Y-74295000D03*
%TD*%
D32*
%TO.P,FB1,1*%
%TO.N,Net-(U1-VDDANA)*%
X164275000Y-121285000D03*
%TO.P,FB1,2*%
%TO.N,+3.3V*%
X165925000Y-121285000D03*
%TD*%
D26*
%TO.P,C3,1*%
%TO.N,+3.3V*%
X156025000Y-122250000D03*
%TO.P,C3,2*%
%TO.N,GND*%
X154475000Y-122250000D03*
%TD*%
D16*
%TO.P,R2,1*%
%TO.N,Net-(J5-CC1)*%
X167830000Y-100330000D03*
%TO.P,R2,2*%
%TO.N,GND*%
X166180000Y-100330000D03*
%TD*%
D19*
%TO.P,L2,1*%
%TO.N,+5V*%
X163830000Y-93137500D03*
%TO.P,L2,2*%
%TO.N,Net-(C8-Pad1)*%
X163830000Y-91012500D03*
%TD*%
D16*
%TO.P,R1,1*%
%TO.N,/D+*%
X167830000Y-102235000D03*
%TO.P,R1,2*%
%TO.N,+3.3V*%
X166180000Y-102235000D03*
%TD*%
%TO.P,R5,1*%
%TO.N,Net-(R3-Pad1)*%
X165290000Y-117475000D03*
%TO.P,R5,2*%
%TO.N,/AIN0*%
X163640000Y-117475000D03*
%TD*%
D33*
%TO.P,U3,1,GND*%
%TO.N,GND*%
X170790000Y-110730000D03*
%TO.P,U3,2,VO*%
%TO.N,+3.3V*%
X170790000Y-113030000D03*
D34*
X164490000Y-113030000D03*
D33*
%TO.P,U3,3,VI*%
%TO.N,+5V*%
X170790000Y-115330000D03*
%TD*%
D35*
%TO.N,Net-(D2-K)*%
X163250000Y-128250000D03*
%TO.N,/SWCLK*%
X163540380Y-102040380D03*
%TO.N,/SWDIO*%
X164400000Y-104443113D03*
%TO.N,/~{SRST}*%
X163600000Y-100311635D03*
X156500000Y-125500000D03*
%TO.N,/RXD*%
X165750000Y-109674780D03*
%TO.N,/TXD*%
X164397575Y-110458111D03*
%TO.N,Net-(C7-Pad1)*%
X168000000Y-108000000D03*
X162500000Y-95000000D03*
%TO.N,+5V*%
X163503678Y-95564340D03*
X169150000Y-114459311D03*
%TO.N,GND*%
X161750000Y-92750000D03*
X169500000Y-120250000D03*
X168500000Y-116750000D03*
X169250000Y-110750000D03*
%TO.N,+3.3V*%
X165000000Y-103250000D03*
X166750000Y-113000000D03*
X167250000Y-121075000D03*
X156250000Y-121500000D03*
%TO.N,Net-(C7-Pad1)*%
X162000000Y-71750000D03*
%TO.N,Net-(D2-A)*%
X161750000Y-127000000D03*
%TO.N,/SWCLK*%
X156250704Y-120418535D03*
%TO.N,/SWDIO*%
X156900704Y-120000000D03*
%TO.N,/RXD*%
X163732057Y-123612781D03*
%TO.N,/TXD*%
X163350000Y-122859257D03*
%TO.N,/D-*%
X158139659Y-126565281D03*
%TO.N,/D+*%
X157324479Y-126324479D03*
%TD*%
D36*
%TO.N,Net-(C7-Pad1)*%
X162420000Y-74295000D02*
X162420000Y-76267500D01*
X162420000Y-76267500D02*
X162560000Y-76407500D01*
X162420000Y-74295000D02*
X162420000Y-72170000D01*
X162420000Y-72170000D02*
X162000000Y-71750000D01*
D37*
%TO.N,GND*%
X169500000Y-120550000D02*
X169500000Y-120250000D01*
X170025000Y-121075000D02*
X169500000Y-120550000D01*
X170500000Y-121075000D02*
X170025000Y-121075000D01*
%TO.N,/SWDIO*%
X169000000Y-93810000D02*
X169000000Y-95565686D01*
X169000000Y-95565686D02*
X165078000Y-99487686D01*
X165078000Y-99487686D02*
X165078000Y-101422000D01*
X165078000Y-101422000D02*
X164400000Y-102100000D01*
X164400000Y-102100000D02*
X164400000Y-104443113D01*
%TO.N,/SWCLK*%
X169000000Y-92540000D02*
X168199000Y-93341000D01*
X168199000Y-95051000D02*
X164250000Y-99000000D01*
X168199000Y-93341000D02*
X168199000Y-95051000D01*
X164250000Y-99000000D02*
X164250000Y-101330760D01*
X164250000Y-101330760D02*
X163540380Y-102040380D01*
%TO.N,+3.3V*%
X166015000Y-102235000D02*
X165000000Y-103250000D01*
X166180000Y-102235000D02*
X166015000Y-102235000D01*
%TO.N,/SWDIO*%
X156900704Y-120200704D02*
X156900704Y-120000000D01*
X157660000Y-120960000D02*
X156900704Y-120200704D01*
%TO.N,+3.3V*%
X166180000Y-102235000D02*
X166180000Y-109185541D01*
X166180000Y-109185541D02*
X166400000Y-109405541D01*
X166400000Y-109405541D02*
X166400000Y-112650000D01*
X166400000Y-112650000D02*
X166750000Y-113000000D01*
%TO.N,/RXD*%
X169000000Y-84540000D02*
X167100000Y-86440000D01*
X162950000Y-99168628D02*
X162950000Y-107002082D01*
X167100000Y-86440000D02*
X167100000Y-95018628D01*
X167100000Y-95018628D02*
X162950000Y-99168628D01*
X162950000Y-107002082D02*
X165622698Y-109674780D01*
X165622698Y-109674780D02*
X165750000Y-109674780D01*
%TO.N,/AIN1*%
X164341000Y-116341000D02*
X163189000Y-115189000D01*
X162150000Y-108149768D02*
X162150000Y-98402942D01*
X164341000Y-118679000D02*
X164341000Y-116341000D01*
X163640000Y-119380000D02*
X164341000Y-118679000D01*
%TO.N,/AIN0*%
X163640000Y-117000000D02*
X162257382Y-115617382D01*
X163640000Y-117475000D02*
X163640000Y-117000000D01*
%TO.N,/AIN1*%
X163189000Y-109188768D02*
X162150000Y-108149768D01*
%TO.N,/AIN0*%
X161750000Y-98237256D02*
X165240000Y-94747257D01*
X161750000Y-108244742D02*
X161750000Y-98237256D01*
X165240000Y-94747257D02*
X165240000Y-88900000D01*
X162257382Y-115617382D02*
X162257382Y-108752124D01*
%TO.N,/AIN1*%
X162150000Y-98402942D02*
X166300000Y-94252942D01*
%TO.N,/AIN0*%
X162257382Y-108752124D02*
X161750000Y-108244742D01*
%TO.N,/AIN1*%
X163189000Y-115189000D02*
X163189000Y-109188768D01*
X166300000Y-94252942D02*
X166300000Y-77100000D01*
X166300000Y-77100000D02*
X163970000Y-74770000D01*
X163970000Y-74770000D02*
X163970000Y-74295000D01*
%TO.N,/TXD*%
X169000000Y-82000000D02*
X167950000Y-82000000D01*
X162550000Y-107521321D02*
X164397575Y-109368896D01*
X167950000Y-82000000D02*
X166700000Y-83250000D01*
X166700000Y-94418630D02*
X162550000Y-98568630D01*
X162550000Y-98568630D02*
X162550000Y-107521321D01*
X166700000Y-83250000D02*
X166700000Y-94418630D01*
X164397575Y-109368896D02*
X164397575Y-110458111D01*
%TO.N,GND*%
X156474110Y-124026000D02*
X156474110Y-124050890D01*
X156474110Y-124050890D02*
X155250000Y-125275000D01*
X158750000Y-114795000D02*
X157500000Y-116045000D01*
X156000000Y-119750000D02*
X154475000Y-121275000D01*
X154475000Y-121275000D02*
X154475000Y-124500000D01*
X154475000Y-124500000D02*
X155250000Y-125275000D01*
X157500000Y-116045000D02*
X157500000Y-117500000D01*
X157500000Y-117500000D02*
X156000000Y-119000000D01*
X156000000Y-119000000D02*
X156000000Y-119750000D01*
%TO.N,Net-(U1-VDDCORE)*%
X155250000Y-123725000D02*
X155725000Y-123250000D01*
X155725000Y-123250000D02*
X156262500Y-123250000D01*
X156262500Y-123250000D02*
X157052500Y-122460000D01*
X157052500Y-122460000D02*
X157660000Y-122460000D01*
%TO.N,GND*%
X157660000Y-122960000D02*
X157540000Y-122960000D01*
X157466000Y-123034000D02*
X157170202Y-123034000D01*
X157170202Y-123034000D02*
X156959000Y-123245202D01*
X156959000Y-123245202D02*
X156959000Y-123541000D01*
X157540000Y-122960000D02*
X157466000Y-123034000D01*
X156959000Y-123541000D02*
X156776000Y-123724000D01*
X156776000Y-123724000D02*
X156776000Y-123724110D01*
X156776000Y-123724110D02*
X156474110Y-124026000D01*
X170125000Y-122625000D02*
X169000000Y-123750000D01*
X168319890Y-124525000D02*
X168250000Y-124525000D01*
X166870000Y-125870000D02*
X166560000Y-125560000D01*
X169000000Y-123750000D02*
X169000000Y-123844890D01*
X169000000Y-123844890D02*
X168319890Y-124525000D01*
X168250000Y-124525000D02*
X166905000Y-125870000D01*
X166905000Y-125870000D02*
X166870000Y-125870000D01*
%TO.N,Net-(U1-PA14)*%
X168250000Y-122975000D02*
X167065000Y-122975000D01*
X167065000Y-122975000D02*
X166680000Y-123360000D01*
X166680000Y-123360000D02*
X166560000Y-123360000D01*
%TO.N,GND*%
X170125000Y-122625000D02*
X169724000Y-122224000D01*
X169724000Y-122224000D02*
X166776000Y-122224000D01*
X166641000Y-122359000D02*
X165861000Y-122359000D01*
X166776000Y-122224000D02*
X166641000Y-122359000D01*
X165861000Y-122359000D02*
X164860000Y-123360000D01*
X170500000Y-122250000D02*
X170125000Y-122625000D01*
X165025000Y-129750000D02*
X166485000Y-128290000D01*
X166485000Y-128290000D02*
X166485000Y-125635000D01*
X166485000Y-125635000D02*
X166560000Y-125560000D01*
%TO.N,Net-(D2-K)*%
X163250000Y-128250000D02*
X163250000Y-129525000D01*
X163250000Y-129525000D02*
X163475000Y-129750000D01*
%TO.N,Net-(D2-A)*%
X161360000Y-126610000D02*
X161750000Y-127000000D01*
X161360000Y-125160000D02*
X161360000Y-126610000D01*
%TO.N,/~{SRST}*%
X169000000Y-88730000D02*
X167500000Y-90230000D01*
X167500000Y-90230000D02*
X167500000Y-95184314D01*
X167500000Y-95184314D02*
X163600000Y-99084314D01*
X163600000Y-99084314D02*
X163600000Y-100311635D01*
%TO.N,+3.3V*%
X170270000Y-93810000D02*
X170270000Y-95050936D01*
X165479000Y-101534000D02*
X166180000Y-102235000D01*
X170270000Y-95050936D02*
X165479000Y-99841936D01*
X165479000Y-99841936D02*
X165479000Y-101534000D01*
%TO.N,GND*%
X170270000Y-91270000D02*
X170270000Y-92540000D01*
X170270000Y-88730000D02*
X171250000Y-89710000D01*
X171250000Y-89710000D02*
X171250000Y-90290000D01*
X171250000Y-90290000D02*
X170270000Y-91270000D01*
%TO.N,/~{SRST}*%
X157660000Y-123960000D02*
X157244202Y-123960000D01*
X156500000Y-124704202D02*
X156500000Y-125500000D01*
D36*
%TO.N,+5V*%
X163830000Y-95238018D02*
X163503678Y-95564340D01*
X163830000Y-93137500D02*
X163830000Y-95238018D01*
D37*
%TO.N,/~{SRST}*%
X157244202Y-123960000D02*
X156500000Y-124704202D01*
%TO.N,/TXD*%
X163249257Y-122960000D02*
X163350000Y-122859257D01*
%TO.N,/RXD*%
X163579276Y-123460000D02*
X163732057Y-123612781D01*
%TO.N,/TXD*%
X162560000Y-122960000D02*
X163249257Y-122960000D01*
%TO.N,Net-(U1-PA15)*%
X162560000Y-124460000D02*
X163660000Y-125560000D01*
%TO.N,Net-(U1-PA14)*%
X165559000Y-124361000D02*
X163664840Y-124361000D01*
X163566621Y-124262781D02*
X163462818Y-124262781D01*
%TO.N,/RXD*%
X162560000Y-123460000D02*
X163579276Y-123460000D01*
%TO.N,Net-(U1-PA14)*%
X163462818Y-124262781D02*
X163160037Y-123960000D01*
%TO.N,Net-(U1-PA15)*%
X163660000Y-125560000D02*
X164860000Y-125560000D01*
%TO.N,Net-(U1-PA14)*%
X163664840Y-124361000D02*
X163566621Y-124262781D01*
X166560000Y-123360000D02*
X165559000Y-124361000D01*
X163160037Y-123960000D02*
X162560000Y-123960000D01*
D36*
%TO.N,Net-(C8-Pad1)*%
X163690000Y-88900000D02*
X163690000Y-88760000D01*
X163690000Y-88760000D02*
X161290000Y-86360000D01*
X163690000Y-88900000D02*
X163690000Y-90872500D01*
X163690000Y-90872500D02*
X163830000Y-91012500D01*
%TO.N,GND*%
X162560000Y-78532500D02*
X162560000Y-78940000D01*
X162560000Y-78940000D02*
X158500000Y-83000000D01*
X158500000Y-83000000D02*
X158500000Y-89500000D01*
X158500000Y-89500000D02*
X161750000Y-92750000D01*
D37*
%TO.N,+5V*%
X169150000Y-114690000D02*
X169150000Y-114459311D01*
X170790000Y-117310000D02*
X170955000Y-117475000D01*
X170790000Y-115330000D02*
X170790000Y-117310000D01*
X170790000Y-115330000D02*
X169790000Y-115330000D01*
X169790000Y-115330000D02*
X169150000Y-114690000D01*
%TO.N,GND*%
X173355000Y-110985000D02*
X171045000Y-110985000D01*
X167129000Y-101279000D02*
X167129000Y-102723064D01*
X171809974Y-104575000D02*
X172749000Y-105514026D01*
X159860000Y-122960000D02*
X160110000Y-122710000D01*
X164250000Y-122580761D02*
X164250000Y-122750000D01*
X169250000Y-110750000D02*
X170770000Y-110750000D01*
X167005000Y-117970000D02*
X168910000Y-117970000D01*
X162560000Y-121460000D02*
X163129239Y-121460000D01*
X163129239Y-121460000D02*
X164250000Y-122580761D01*
X166180000Y-100330000D02*
X167129000Y-101279000D01*
X171045000Y-110985000D02*
X170790000Y-110730000D01*
X164250000Y-122750000D02*
X164860000Y-123360000D01*
X167885000Y-98625000D02*
X166180000Y-100330000D01*
X168680000Y-116750000D02*
X169405000Y-117475000D01*
X161360000Y-121460000D02*
X160110000Y-122710000D01*
X172749000Y-105514026D02*
X172749000Y-106461000D01*
X168980936Y-104575000D02*
X169965000Y-104575000D01*
X160655000Y-114795000D02*
X158750000Y-114795000D01*
X171315000Y-104575000D02*
X171809974Y-104575000D01*
X168910000Y-117970000D02*
X169405000Y-117475000D01*
X172749000Y-106461000D02*
X171260000Y-107950000D01*
X170500000Y-121075000D02*
X170500000Y-122250000D01*
X171260000Y-110260000D02*
X170790000Y-110730000D01*
X167129000Y-102723064D02*
X168980936Y-104575000D01*
X170770000Y-110750000D02*
X170790000Y-110730000D01*
X162560000Y-121460000D02*
X161360000Y-121460000D01*
X171260000Y-107950000D02*
X171260000Y-110260000D01*
X168500000Y-116750000D02*
X168680000Y-116750000D01*
X169965000Y-98625000D02*
X167885000Y-98625000D01*
X157660000Y-122960000D02*
X159860000Y-122960000D01*
%TO.N,+3.3V*%
X156025000Y-121725000D02*
X156250000Y-121500000D01*
X157660000Y-121960000D02*
X156235000Y-121960000D01*
X156025000Y-121750000D02*
X156025000Y-121725000D01*
X170790000Y-113030000D02*
X166970000Y-113030000D01*
X166970000Y-113030000D02*
X166750000Y-113250000D01*
X168750000Y-121075000D02*
X167250000Y-121075000D01*
X156235000Y-121960000D02*
X156025000Y-121750000D01*
X167250000Y-121075000D02*
X166135000Y-121075000D01*
X166135000Y-121075000D02*
X165925000Y-121285000D01*
X166720000Y-113030000D02*
X166750000Y-113000000D01*
X172860000Y-113030000D02*
X173355000Y-112535000D01*
X170790000Y-113030000D02*
X172860000Y-113030000D01*
X164490000Y-113030000D02*
X166720000Y-113030000D01*
%TO.N,Net-(U1-PA15)*%
X164860000Y-127560000D02*
X164935000Y-127635000D01*
X164860000Y-125560000D02*
X164860000Y-127560000D01*
%TO.N,/AIN1*%
X163640000Y-119380000D02*
X161324202Y-119380000D01*
X160860000Y-119844202D02*
X160860000Y-120260000D01*
X161324202Y-119380000D02*
X160860000Y-119844202D01*
%TO.N,/AIN0*%
X160360000Y-119777102D02*
X160360000Y-120260000D01*
X163640000Y-117475000D02*
X162662102Y-117475000D01*
X162662102Y-117475000D02*
X160360000Y-119777102D01*
%TO.N,Net-(U1-PA00)*%
X158150000Y-120050000D02*
X158360000Y-120260000D01*
X158750000Y-117510000D02*
X158150000Y-118110000D01*
X158150000Y-118110000D02*
X158150000Y-120050000D01*
X158750000Y-116345000D02*
X158750000Y-117510000D01*
%TO.N,Net-(U1-PA01)*%
X160655000Y-116345000D02*
X160655000Y-116805000D01*
X158860000Y-120260000D02*
X158860000Y-118600000D01*
X160655000Y-116805000D02*
X159350000Y-118110000D01*
X158860000Y-118600000D02*
X159350000Y-118110000D01*
%TO.N,Net-(U1-VDDANA)*%
X167005000Y-119520000D02*
X166369000Y-120156000D01*
X163950000Y-120960000D02*
X162560000Y-120960000D01*
X166369000Y-120156000D02*
X165404000Y-120156000D01*
X164275000Y-121285000D02*
X163950000Y-120960000D01*
X165404000Y-120156000D02*
X164275000Y-121285000D01*
%TO.N,/SWCLK*%
X156250704Y-120620830D02*
X156250704Y-120418535D01*
X157089874Y-121460000D02*
X156250704Y-120620830D01*
X157660000Y-121460000D02*
X157089874Y-121460000D01*
%TO.N,Net-(J5-CC2)*%
X172910000Y-103975026D02*
X171809974Y-102875000D01*
X171809974Y-102875000D02*
X171315000Y-102875000D01*
X172910000Y-107950000D02*
X172910000Y-106865686D01*
X173150000Y-105334314D02*
X172910000Y-105094314D01*
X172910000Y-106865686D02*
X173150000Y-106625686D01*
X173150000Y-106625686D02*
X173150000Y-105334314D01*
X172910000Y-105094314D02*
X172910000Y-103975026D01*
%TO.N,Net-(J5-CC1)*%
X169965000Y-100325000D02*
X167835000Y-100325000D01*
X167835000Y-100325000D02*
X167830000Y-100330000D01*
%TO.N,Net-(R3-Pad1)*%
X170500000Y-119425000D02*
X168750000Y-119425000D01*
X165290000Y-119380000D02*
X165290000Y-117475000D01*
X168750000Y-119425000D02*
X168094000Y-118769000D01*
X168094000Y-118769000D02*
X165901000Y-118769000D01*
X165901000Y-118769000D02*
X165290000Y-119380000D01*
%TO.N,/D-*%
X158860000Y-125160000D02*
X158860000Y-125844940D01*
X158860000Y-125844940D02*
X158139659Y-126565281D01*
%TO.N,/D+*%
X170035654Y-101175000D02*
X169965000Y-101175000D01*
X171315000Y-102025000D02*
X170885654Y-102025000D01*
X168890000Y-101175000D02*
X167830000Y-102235000D01*
X158385000Y-125460000D02*
X158385000Y-125546802D01*
X157764860Y-125884099D02*
X157324479Y-126324479D01*
X158385000Y-125546802D02*
X158047703Y-125884099D01*
X158360000Y-125160000D02*
X158360000Y-125435000D01*
X158047703Y-125884099D02*
X157764860Y-125884099D01*
X170885654Y-102025000D02*
X170035654Y-101175000D01*
X169965000Y-101175000D02*
X168890000Y-101175000D01*
X158360000Y-125435000D02*
X158385000Y-125460000D01*
%TD*%
%TA.AperFunction,Conductor*%
%TO.N,Net-(C7-Pad1)*%
G36*
X153489090Y-122375781D02*
G01*
X153521934Y-122437450D01*
X153524500Y-122462543D01*
X153524500Y-122548336D01*
X153524501Y-122548355D01*
X153534650Y-122647707D01*
X153534651Y-122647710D01*
X153587996Y-122808694D01*
X153588001Y-122808705D01*
X153677029Y-122953040D01*
X153677032Y-122953044D01*
X153796956Y-123072968D01*
X153815596Y-123084465D01*
X153862321Y-123136412D01*
X153874500Y-123190004D01*
X153874500Y-124413330D01*
X153874499Y-124413348D01*
X153874499Y-124579054D01*
X153874498Y-124579054D01*
X153880653Y-124602023D01*
X153915423Y-124731785D01*
X153915424Y-124731786D01*
X153929856Y-124756785D01*
X153929857Y-124756786D01*
X153994475Y-124868709D01*
X153994481Y-124868717D01*
X154113349Y-124987585D01*
X154113355Y-124987590D01*
X154238181Y-125112416D01*
X154271666Y-125173739D01*
X154274500Y-125200097D01*
X154274500Y-125548337D01*
X154274501Y-125548355D01*
X154284650Y-125647707D01*
X154284651Y-125647710D01*
X154337996Y-125808694D01*
X154338001Y-125808705D01*
X154427029Y-125953040D01*
X154427032Y-125953044D01*
X154546955Y-126072967D01*
X154546959Y-126072970D01*
X154691294Y-126161998D01*
X154691297Y-126161999D01*
X154691303Y-126162003D01*
X154852292Y-126215349D01*
X154951655Y-126225500D01*
X155548344Y-126225499D01*
X155548352Y-126225498D01*
X155548355Y-126225498D01*
X155602760Y-126219940D01*
X155647708Y-126215349D01*
X155808697Y-126162003D01*
X155866341Y-126126446D01*
X155933729Y-126108006D01*
X156000328Y-126128883D01*
X156120814Y-126209390D01*
X156120827Y-126209397D01*
X156266498Y-126269735D01*
X156266503Y-126269737D01*
X156421158Y-126300500D01*
X156425657Y-126301395D01*
X156487568Y-126333780D01*
X156522142Y-126394495D01*
X156523083Y-126398820D01*
X156554740Y-126557970D01*
X156554743Y-126557980D01*
X156615081Y-126703651D01*
X156615088Y-126703664D01*
X156702689Y-126834767D01*
X156702692Y-126834771D01*
X156814186Y-126946265D01*
X156814190Y-126946268D01*
X156945293Y-127033869D01*
X156945306Y-127033876D01*
X157053870Y-127078844D01*
X157090982Y-127094216D01*
X157245632Y-127124978D01*
X157245635Y-127124979D01*
X157245637Y-127124979D01*
X157403322Y-127124979D01*
X157443765Y-127116934D01*
X157475068Y-127110707D01*
X157544660Y-127116934D01*
X157586942Y-127144643D01*
X157629366Y-127187067D01*
X157629370Y-127187070D01*
X157760473Y-127274671D01*
X157760486Y-127274678D01*
X157906157Y-127335016D01*
X157906162Y-127335018D01*
X158060812Y-127365780D01*
X158060815Y-127365781D01*
X158060817Y-127365781D01*
X158218503Y-127365781D01*
X158218504Y-127365780D01*
X158373156Y-127335018D01*
X158518838Y-127274675D01*
X158649948Y-127187070D01*
X158761448Y-127075570D01*
X158849053Y-126944460D01*
X158909396Y-126798778D01*
X158931222Y-126689054D01*
X158940297Y-126643431D01*
X158972682Y-126581520D01*
X158974184Y-126579990D01*
X159218506Y-126335667D01*
X159218511Y-126335664D01*
X159228714Y-126325460D01*
X159228716Y-126325460D01*
X159340520Y-126213656D01*
X159395866Y-126117792D01*
X159397647Y-126116094D01*
X159398320Y-126113723D01*
X159422788Y-126092121D01*
X159446429Y-126069580D01*
X159449424Y-126068607D01*
X159450699Y-126067482D01*
X159472529Y-126061103D01*
X159484470Y-126057226D01*
X159485731Y-126057032D01*
X159569472Y-126046009D01*
X159576398Y-126043139D01*
X159591219Y-126040869D01*
X159611540Y-126043599D01*
X159631925Y-126041392D01*
X159642514Y-126044501D01*
X159642674Y-126043905D01*
X159650524Y-126046008D01*
X159650526Y-126046008D01*
X159650528Y-126046009D01*
X159760599Y-126060500D01*
X159959400Y-126060499D01*
X159959401Y-126060499D01*
X159984263Y-126057226D01*
X160069472Y-126046009D01*
X160069475Y-126046007D01*
X160077326Y-126043905D01*
X160078210Y-126047207D01*
X160131925Y-126041392D01*
X160142514Y-126044501D01*
X160142674Y-126043905D01*
X160150524Y-126046008D01*
X160150526Y-126046008D01*
X160150528Y-126046009D01*
X160260599Y-126060500D01*
X160459400Y-126060499D01*
X160459401Y-126060499D01*
X160484263Y-126057226D01*
X160569472Y-126046009D01*
X160569475Y-126046007D01*
X160577326Y-126043905D01*
X160578210Y-126047207D01*
X160631925Y-126041392D01*
X160636878Y-126042386D01*
X160647446Y-126044732D01*
X160650528Y-126046009D01*
X160657079Y-126046871D01*
X160662378Y-126048048D01*
X160688403Y-126062404D01*
X160715580Y-126074426D01*
X160718659Y-126079094D01*
X160723557Y-126081796D01*
X160737688Y-126107942D01*
X160754052Y-126132750D01*
X160755186Y-126140317D01*
X160756778Y-126143263D01*
X160756391Y-126148359D01*
X160759500Y-126169100D01*
X160759500Y-126523330D01*
X160759499Y-126523348D01*
X160759499Y-126689054D01*
X160759498Y-126689054D01*
X160798543Y-126834768D01*
X160800423Y-126841785D01*
X160829360Y-126891904D01*
X160879480Y-126978716D01*
X160922733Y-127021969D01*
X160928730Y-127030385D01*
X160936920Y-127054026D01*
X160948911Y-127075985D01*
X160949362Y-127078151D01*
X160980261Y-127233491D01*
X160980264Y-127233501D01*
X161040602Y-127379172D01*
X161040609Y-127379185D01*
X161128210Y-127510288D01*
X161128213Y-127510292D01*
X161239707Y-127621786D01*
X161239711Y-127621789D01*
X161370814Y-127709390D01*
X161370827Y-127709397D01*
X161444013Y-127739711D01*
X161516503Y-127769737D01*
X161671153Y-127800499D01*
X161671156Y-127800500D01*
X161671158Y-127800500D01*
X161828844Y-127800500D01*
X161828845Y-127800499D01*
X161983497Y-127769737D01*
X162129179Y-127709394D01*
X162260289Y-127621789D01*
X162371789Y-127510289D01*
X162459394Y-127379179D01*
X162519737Y-127233497D01*
X162550500Y-127078842D01*
X162550500Y-126921158D01*
X162550500Y-126921155D01*
X162550499Y-126921153D01*
X162539824Y-126867485D01*
X162519737Y-126766503D01*
X162519735Y-126766498D01*
X162459397Y-126620827D01*
X162459390Y-126620814D01*
X162371789Y-126489711D01*
X162371786Y-126489707D01*
X162260292Y-126378213D01*
X162260288Y-126378210D01*
X162129185Y-126290609D01*
X162129175Y-126290604D01*
X162080645Y-126270502D01*
X162026241Y-126226660D01*
X162004177Y-126160366D01*
X162021457Y-126092667D01*
X162072594Y-126045057D01*
X162080633Y-126041385D01*
X162206424Y-125989281D01*
X162206425Y-125989281D01*
X162206425Y-125989280D01*
X162206429Y-125989279D01*
X162324036Y-125899036D01*
X162414279Y-125781429D01*
X162471009Y-125644472D01*
X162485500Y-125534401D01*
X162485499Y-125534120D01*
X162485524Y-125534037D01*
X162485766Y-125530350D01*
X162486590Y-125530404D01*
X162505168Y-125467080D01*
X162557962Y-125421313D01*
X162627118Y-125411354D01*
X162690680Y-125440364D01*
X162697180Y-125446415D01*
X163175139Y-125924374D01*
X163175149Y-125924385D01*
X163179479Y-125928715D01*
X163179480Y-125928716D01*
X163291284Y-126040520D01*
X163347487Y-126072968D01*
X163378095Y-126090639D01*
X163378097Y-126090641D01*
X163408063Y-126107942D01*
X163428215Y-126119577D01*
X163580943Y-126160501D01*
X163580946Y-126160501D01*
X163679699Y-126160501D01*
X163746738Y-126180186D01*
X163792493Y-126232990D01*
X163797403Y-126245492D01*
X163825186Y-126329334D01*
X163917288Y-126478656D01*
X164041344Y-126602712D01*
X164107360Y-126643431D01*
X164170689Y-126682492D01*
X164217414Y-126734440D01*
X164228637Y-126803402D01*
X164200794Y-126867485D01*
X164193276Y-126875711D01*
X164137029Y-126931959D01*
X164048001Y-127076294D01*
X164047996Y-127076305D01*
X163994651Y-127237290D01*
X163984500Y-127336647D01*
X163984500Y-127553059D01*
X163964815Y-127620098D01*
X163912011Y-127665853D01*
X163842853Y-127675797D01*
X163779297Y-127646772D01*
X163772819Y-127640740D01*
X163760292Y-127628213D01*
X163760288Y-127628210D01*
X163629185Y-127540609D01*
X163629172Y-127540602D01*
X163483501Y-127480264D01*
X163483489Y-127480261D01*
X163328845Y-127449500D01*
X163328842Y-127449500D01*
X163171158Y-127449500D01*
X163171155Y-127449500D01*
X163016510Y-127480261D01*
X163016498Y-127480264D01*
X162870827Y-127540602D01*
X162870814Y-127540609D01*
X162739711Y-127628210D01*
X162739707Y-127628213D01*
X162628213Y-127739707D01*
X162628210Y-127739711D01*
X162540609Y-127870814D01*
X162540602Y-127870827D01*
X162480264Y-128016498D01*
X162480261Y-128016510D01*
X162449500Y-128171153D01*
X162449500Y-128328846D01*
X162480261Y-128483489D01*
X162480264Y-128483501D01*
X162540602Y-128629172D01*
X162540609Y-128629185D01*
X162628602Y-128760874D01*
X162634252Y-128778920D01*
X162644477Y-128794830D01*
X162648928Y-128825789D01*
X162649480Y-128827551D01*
X162649500Y-128829765D01*
X162649500Y-129056424D01*
X162631039Y-129121520D01*
X162588000Y-129191296D01*
X162587996Y-129191305D01*
X162534651Y-129352290D01*
X162524500Y-129451647D01*
X162524500Y-130048337D01*
X162524501Y-130048355D01*
X162534650Y-130147707D01*
X162534651Y-130147710D01*
X162587996Y-130308694D01*
X162588001Y-130308705D01*
X162677029Y-130453040D01*
X162677032Y-130453044D01*
X162796955Y-130572967D01*
X162796959Y-130572970D01*
X162941294Y-130661998D01*
X162941297Y-130661999D01*
X162941303Y-130662003D01*
X163102292Y-130715349D01*
X163201655Y-130725500D01*
X163748344Y-130725499D01*
X163748352Y-130725498D01*
X163748355Y-130725498D01*
X163802760Y-130719940D01*
X163847708Y-130715349D01*
X164008697Y-130662003D01*
X164153044Y-130572968D01*
X164162319Y-130563693D01*
X164223642Y-130530208D01*
X164293334Y-130535192D01*
X164337681Y-130563693D01*
X164346955Y-130572967D01*
X164346959Y-130572970D01*
X164491294Y-130661998D01*
X164491297Y-130661999D01*
X164491303Y-130662003D01*
X164652292Y-130715349D01*
X164751655Y-130725500D01*
X165298344Y-130725499D01*
X165389951Y-130716141D01*
X165458642Y-130728911D01*
X165509526Y-130776791D01*
X165526447Y-130844581D01*
X165504031Y-130910757D01*
X165500665Y-130915325D01*
X164874781Y-131725173D01*
X164872620Y-131727890D01*
X164016589Y-132773663D01*
X164014352Y-132776319D01*
X163129406Y-133797687D01*
X163127097Y-133800278D01*
X162213855Y-134796528D01*
X162211473Y-134799055D01*
X161460982Y-135573093D01*
X161400183Y-135607521D01*
X161366075Y-135610636D01*
X154064472Y-135263870D01*
X153998441Y-135241028D01*
X153971720Y-135215159D01*
X153654688Y-134799055D01*
X150300332Y-130396463D01*
X150275362Y-130331209D01*
X150275768Y-130307244D01*
X150861208Y-125181442D01*
X150888373Y-125117071D01*
X150896562Y-125107998D01*
X151129497Y-124874282D01*
X151876487Y-124074101D01*
X152596956Y-123249958D01*
X153290133Y-122402733D01*
X153302016Y-122387200D01*
X153358379Y-122345917D01*
X153428119Y-122341659D01*
X153489090Y-122375781D01*
G37*
%TD.AperFunction*%
%TA.AperFunction,Conductor*%
G36*
X159028621Y-91032980D02*
G01*
X159069450Y-91060107D01*
X160953928Y-92944585D01*
X160980808Y-92984814D01*
X161040602Y-93129172D01*
X161040609Y-93129185D01*
X161128210Y-93260288D01*
X161128213Y-93260292D01*
X161239707Y-93371786D01*
X161239711Y-93371789D01*
X161370814Y-93459390D01*
X161370827Y-93459397D01*
X161516498Y-93519735D01*
X161516503Y-93519737D01*
X161671153Y-93550499D01*
X161671156Y-93550500D01*
X161671158Y-93550500D01*
X161828844Y-93550500D01*
X161828845Y-93550499D01*
X161983497Y-93519737D01*
X162129179Y-93459394D01*
X162260289Y-93371789D01*
X162371789Y-93260289D01*
X162459394Y-93129179D01*
X162459397Y-93129172D01*
X162490939Y-93053023D01*
X162534780Y-92998619D01*
X162601074Y-92976554D01*
X162668773Y-92993833D01*
X162716384Y-93044970D01*
X162729500Y-93100475D01*
X162729500Y-93404181D01*
X162739563Y-93502683D01*
X162792450Y-93662284D01*
X162792455Y-93662295D01*
X162880716Y-93805387D01*
X162880719Y-93805391D01*
X162999609Y-93924281D01*
X163070599Y-93968068D01*
X163117321Y-94020014D01*
X163129500Y-94073605D01*
X163129500Y-94785324D01*
X163109815Y-94852363D01*
X163074391Y-94888426D01*
X162993389Y-94942550D01*
X162993385Y-94942553D01*
X162881891Y-95054047D01*
X162881888Y-95054051D01*
X162794287Y-95185154D01*
X162794280Y-95185167D01*
X162733942Y-95330838D01*
X162733939Y-95330850D01*
X162703178Y-95485493D01*
X162703178Y-95643186D01*
X162733939Y-95797829D01*
X162733942Y-95797841D01*
X162794280Y-95943512D01*
X162794287Y-95943525D01*
X162881888Y-96074628D01*
X162881891Y-96074632D01*
X162884958Y-96077699D01*
X162918443Y-96139022D01*
X162913459Y-96208714D01*
X162884958Y-96253061D01*
X161381286Y-97756734D01*
X161269481Y-97868538D01*
X161269479Y-97868540D01*
X161255526Y-97892709D01*
X161237172Y-97924500D01*
X161190423Y-98005471D01*
X161149499Y-98158199D01*
X161149499Y-98158201D01*
X161149499Y-98326302D01*
X161149500Y-98326315D01*
X161149500Y-108158072D01*
X161149499Y-108158090D01*
X161149499Y-108323796D01*
X161149498Y-108323796D01*
X161190423Y-108476527D01*
X161209505Y-108509577D01*
X161244774Y-108570665D01*
X161269479Y-108613457D01*
X161381285Y-108725263D01*
X161620563Y-108964540D01*
X161654048Y-109025863D01*
X161656882Y-109052221D01*
X161656882Y-113996508D01*
X161637197Y-114063547D01*
X161584393Y-114109302D01*
X161515235Y-114119246D01*
X161451679Y-114090221D01*
X161445201Y-114084189D01*
X161358044Y-113997032D01*
X161358040Y-113997029D01*
X161213705Y-113908001D01*
X161213699Y-113907998D01*
X161213697Y-113907997D01*
X161175624Y-113895381D01*
X161052709Y-113854651D01*
X160953346Y-113844500D01*
X160356662Y-113844500D01*
X160356644Y-113844501D01*
X160257292Y-113854650D01*
X160257289Y-113854651D01*
X160096305Y-113907996D01*
X160096294Y-113908001D01*
X159951959Y-113997029D01*
X159951955Y-113997032D01*
X159832031Y-114116956D01*
X159820535Y-114135596D01*
X159812948Y-114142419D01*
X159808709Y-114151703D01*
X159787410Y-114165390D01*
X159768588Y-114182321D01*
X159756951Y-114184965D01*
X159749931Y-114189477D01*
X159714996Y-114194500D01*
X159690004Y-114194500D01*
X159622965Y-114174815D01*
X159584465Y-114135596D01*
X159572968Y-114116956D01*
X159453044Y-113997032D01*
X159453040Y-113997029D01*
X159308705Y-113908001D01*
X159308699Y-113907998D01*
X159308697Y-113907997D01*
X159270624Y-113895381D01*
X159147709Y-113854651D01*
X159048346Y-113844500D01*
X158451662Y-113844500D01*
X158451641Y-113844502D01*
X158397305Y-113850052D01*
X158328612Y-113837281D01*
X158277729Y-113789400D01*
X158260809Y-113721610D01*
X158268616Y-113683115D01*
X158573706Y-112870578D01*
X158924834Y-111833759D01*
X159241925Y-110786029D01*
X159524640Y-109728505D01*
X159772680Y-108662315D01*
X159985778Y-107588595D01*
X160163708Y-106508490D01*
X160306281Y-105423152D01*
X160348583Y-104992710D01*
X160413341Y-104333762D01*
X160414878Y-104310265D01*
X160484782Y-103241410D01*
X160520520Y-102147331D01*
X160520500Y-101600000D01*
X160520500Y-101562544D01*
X160520519Y-101052669D01*
X160484781Y-99958590D01*
X160413342Y-98866262D01*
X160397864Y-98708768D01*
X160306282Y-97776868D01*
X160306281Y-97776866D01*
X160306280Y-97776848D01*
X160163707Y-96691510D01*
X159985777Y-95611405D01*
X159772679Y-94537686D01*
X159524639Y-93471495D01*
X159241924Y-92413972D01*
X158924833Y-91366241D01*
X158864320Y-91187559D01*
X158861462Y-91117752D01*
X158896799Y-91057477D01*
X158959113Y-91025875D01*
X159028621Y-91032980D01*
G37*
%TD.AperFunction*%
%TA.AperFunction,Conductor*%
G36*
X166985703Y-103429448D02*
G01*
X166992181Y-103435480D01*
X168496075Y-104939374D01*
X168496085Y-104939385D01*
X168500415Y-104943715D01*
X168500416Y-104943716D01*
X168612220Y-105055520D01*
X168699031Y-105105639D01*
X168699033Y-105105641D01*
X168737087Y-105127611D01*
X168749151Y-105134577D01*
X168901879Y-105175501D01*
X168901882Y-105175501D01*
X169067589Y-105175501D01*
X169067605Y-105175500D01*
X169311349Y-105175500D01*
X169378388Y-105195185D01*
X169399030Y-105211819D01*
X169404608Y-105217397D01*
X169416489Y-105239156D01*
X169424143Y-105247989D01*
X169425154Y-105255025D01*
X169438093Y-105278720D01*
X169433109Y-105348412D01*
X169420030Y-105373968D01*
X169352680Y-105474764D01*
X169352676Y-105474771D01*
X169281027Y-105647748D01*
X169281025Y-105647756D01*
X169244500Y-105831379D01*
X169244500Y-106018620D01*
X169281025Y-106202243D01*
X169281027Y-106202251D01*
X169352676Y-106375228D01*
X169352681Y-106375237D01*
X169456697Y-106530907D01*
X169456700Y-106530911D01*
X169589088Y-106663299D01*
X169589092Y-106663302D01*
X169744762Y-106767318D01*
X169744768Y-106767321D01*
X169744769Y-106767322D01*
X169917749Y-106838973D01*
X170060773Y-106867422D01*
X170101379Y-106875499D01*
X170101383Y-106875500D01*
X170101384Y-106875500D01*
X170583677Y-106875500D01*
X170650716Y-106895185D01*
X170696471Y-106947989D01*
X170706415Y-107017147D01*
X170677390Y-107080703D01*
X170647828Y-107105616D01*
X170624814Y-107119528D01*
X170624810Y-107119531D01*
X170504530Y-107239811D01*
X170416522Y-107385393D01*
X170365913Y-107547807D01*
X170359500Y-107618386D01*
X170359500Y-108281613D01*
X170365913Y-108352192D01*
X170365913Y-108352194D01*
X170365914Y-108352196D01*
X170416522Y-108514606D01*
X170504528Y-108660185D01*
X170623182Y-108778839D01*
X170656666Y-108840160D01*
X170659500Y-108866519D01*
X170659500Y-109355500D01*
X170639815Y-109422539D01*
X170587011Y-109468294D01*
X170535500Y-109479500D01*
X170088878Y-109479500D01*
X170088874Y-109479501D01*
X170046113Y-109482399D01*
X170046112Y-109482399D01*
X169861303Y-109528360D01*
X169690707Y-109612967D01*
X169690704Y-109612969D01*
X169542278Y-109732277D01*
X169542277Y-109732278D01*
X169422969Y-109880704D01*
X169419346Y-109886373D01*
X169418301Y-109885705D01*
X169375604Y-109931907D01*
X169311936Y-109949500D01*
X169171155Y-109949500D01*
X169016510Y-109980261D01*
X169016498Y-109980264D01*
X168870827Y-110040602D01*
X168870814Y-110040609D01*
X168739711Y-110128210D01*
X168739707Y-110128213D01*
X168628213Y-110239707D01*
X168628210Y-110239711D01*
X168540609Y-110370814D01*
X168540602Y-110370827D01*
X168480264Y-110516498D01*
X168480261Y-110516510D01*
X168449500Y-110671153D01*
X168449500Y-110828846D01*
X168480261Y-110983489D01*
X168480264Y-110983501D01*
X168540602Y-111129172D01*
X168540609Y-111129185D01*
X168628210Y-111260288D01*
X168628213Y-111260292D01*
X168739707Y-111371786D01*
X168739711Y-111371789D01*
X168870814Y-111459390D01*
X168870827Y-111459397D01*
X169013992Y-111518697D01*
X169016503Y-111519737D01*
X169154528Y-111547192D01*
X169171153Y-111550499D01*
X169171156Y-111550500D01*
X169334934Y-111550500D01*
X169334934Y-111551945D01*
X169396476Y-111563607D01*
X169436647Y-111596312D01*
X169505720Y-111682242D01*
X169542277Y-111727721D01*
X169542278Y-111727722D01*
X169611486Y-111783353D01*
X169651405Y-111840696D01*
X169653985Y-111910518D01*
X169618406Y-111970651D01*
X169611486Y-111976647D01*
X169542278Y-112032277D01*
X169542277Y-112032278D01*
X169422969Y-112180704D01*
X169422967Y-112180707D01*
X169335372Y-112357329D01*
X169333464Y-112356382D01*
X169297869Y-112404410D01*
X169232522Y-112429140D01*
X169223084Y-112429500D01*
X167362941Y-112429500D01*
X167295902Y-112409815D01*
X167275260Y-112393181D01*
X167260292Y-112378213D01*
X167260288Y-112378210D01*
X167129185Y-112290609D01*
X167129170Y-112290601D01*
X167077046Y-112269010D01*
X167022643Y-112225168D01*
X167000579Y-112158874D01*
X167000500Y-112154450D01*
X167000500Y-109494600D01*
X167000501Y-109494587D01*
X167000501Y-109326486D01*
X167000501Y-109326484D01*
X166959577Y-109173756D01*
X166889853Y-109052991D01*
X166880520Y-109036825D01*
X166813991Y-108970296D01*
X166811349Y-108967289D01*
X166798234Y-108939088D01*
X166783334Y-108911800D01*
X166782669Y-108905617D01*
X166781887Y-108903935D01*
X166782223Y-108901473D01*
X166780500Y-108885442D01*
X166780500Y-103523161D01*
X166800185Y-103456122D01*
X166852989Y-103410367D01*
X166922147Y-103400423D01*
X166985703Y-103429448D01*
G37*
%TD.AperFunction*%
%TA.AperFunction,Conductor*%
G36*
X161433971Y-67605844D02*
G01*
X161460981Y-67626905D01*
X161763455Y-67938870D01*
X162211489Y-68400961D01*
X162213862Y-68403478D01*
X163127104Y-69399729D01*
X163129366Y-69402268D01*
X163623224Y-69972258D01*
X164014351Y-70423681D01*
X164016588Y-70426337D01*
X164872619Y-71472109D01*
X164874780Y-71474826D01*
X165701191Y-72544142D01*
X165703275Y-72546918D01*
X165919284Y-72843204D01*
X166465392Y-73592267D01*
X166499419Y-73638939D01*
X166501425Y-73641773D01*
X167266707Y-74755683D01*
X167268633Y-74758571D01*
X168002429Y-75893467D01*
X168004273Y-75896409D01*
X168705999Y-77051380D01*
X168707760Y-77054372D01*
X169376890Y-78228559D01*
X169378566Y-78231599D01*
X170014539Y-79424013D01*
X170016130Y-79427098D01*
X170618515Y-80636931D01*
X170620018Y-80640061D01*
X171188251Y-81866185D01*
X171189667Y-81869354D01*
X171255312Y-82022068D01*
X171715371Y-83092335D01*
X171723381Y-83110968D01*
X171724707Y-83114177D01*
X172223442Y-84370221D01*
X172224678Y-84373465D01*
X172688059Y-85642985D01*
X172689204Y-85646263D01*
X173116869Y-86928277D01*
X173117921Y-86931585D01*
X173509526Y-88225059D01*
X173510485Y-88228396D01*
X173865716Y-89532287D01*
X173866582Y-89535649D01*
X174185182Y-90849017D01*
X174185953Y-90852402D01*
X174467661Y-92174173D01*
X174468337Y-92177578D01*
X174712925Y-93506681D01*
X174713506Y-93510104D01*
X174920799Y-94845588D01*
X174921283Y-94849025D01*
X175091103Y-96189748D01*
X175091491Y-96193199D01*
X175093744Y-96216119D01*
X175080712Y-96284763D01*
X175032638Y-96335464D01*
X174964784Y-96352125D01*
X174946148Y-96349867D01*
X174818620Y-96324500D01*
X174818616Y-96324500D01*
X173831384Y-96324500D01*
X173831379Y-96324500D01*
X173647756Y-96361025D01*
X173647748Y-96361027D01*
X173474771Y-96432676D01*
X173474762Y-96432681D01*
X173319092Y-96536697D01*
X173319088Y-96536700D01*
X173186700Y-96669088D01*
X173186697Y-96669092D01*
X173082681Y-96824762D01*
X173082676Y-96824771D01*
X173011027Y-96997748D01*
X173011025Y-96997756D01*
X172974500Y-97181379D01*
X172974500Y-97368620D01*
X173011025Y-97552243D01*
X173011027Y-97552251D01*
X173082676Y-97725228D01*
X173082681Y-97725237D01*
X173186697Y-97880907D01*
X173186700Y-97880911D01*
X173319088Y-98013299D01*
X173319092Y-98013302D01*
X173474762Y-98117318D01*
X173474771Y-98117323D01*
X173513956Y-98133554D01*
X173647749Y-98188973D01*
X173814477Y-98222137D01*
X173831379Y-98225499D01*
X173831383Y-98225500D01*
X173831384Y-98225500D01*
X174818617Y-98225500D01*
X174818618Y-98225499D01*
X175002251Y-98188973D01*
X175102747Y-98147345D01*
X175172215Y-98139877D01*
X175234695Y-98171152D01*
X175270347Y-98231241D01*
X175273895Y-98253234D01*
X175318521Y-98889734D01*
X175318716Y-98893201D01*
X175375458Y-100243486D01*
X175375555Y-100246956D01*
X175394474Y-101598296D01*
X175394474Y-101601768D01*
X175375556Y-102953043D01*
X175375459Y-102956513D01*
X175318717Y-104306798D01*
X175318522Y-104310265D01*
X175273896Y-104946766D01*
X175249571Y-105012264D01*
X175193697Y-105054214D01*
X175124012Y-105059296D01*
X175102747Y-105052654D01*
X175002251Y-105011027D01*
X175002243Y-105011025D01*
X174818620Y-104974500D01*
X174818616Y-104974500D01*
X173831384Y-104974500D01*
X173800556Y-104980632D01*
X173736274Y-104993418D01*
X173728366Y-104992710D01*
X173720929Y-104995484D01*
X173694064Y-104989639D01*
X173666683Y-104987189D01*
X173658675Y-104981941D01*
X173652656Y-104980632D01*
X173624405Y-104959483D01*
X173546818Y-104881896D01*
X173513334Y-104820572D01*
X173510500Y-104794215D01*
X173510500Y-104064086D01*
X173510501Y-104064073D01*
X173510501Y-103895970D01*
X173504022Y-103871789D01*
X173469577Y-103743242D01*
X173469573Y-103743235D01*
X173390524Y-103606316D01*
X173390518Y-103606308D01*
X172297850Y-102513641D01*
X172290495Y-102506286D01*
X172290494Y-102506284D01*
X172178690Y-102394480D01*
X172175587Y-102392688D01*
X172167393Y-102384582D01*
X172154103Y-102360551D01*
X172137910Y-102338373D01*
X172137298Y-102330165D01*
X172133579Y-102323440D01*
X172135092Y-102300544D01*
X172132984Y-102272239D01*
X172165499Y-102108771D01*
X172165500Y-102108768D01*
X172165500Y-101941232D01*
X172165499Y-101941228D01*
X172132817Y-101776925D01*
X172132816Y-101776918D01*
X172079188Y-101647451D01*
X172071720Y-101577984D01*
X172079189Y-101552547D01*
X172082847Y-101543716D01*
X172132816Y-101423082D01*
X172165500Y-101258767D01*
X172165500Y-101091233D01*
X172132816Y-100926918D01*
X172079188Y-100797451D01*
X172071720Y-100727984D01*
X172079189Y-100702547D01*
X172132816Y-100573082D01*
X172165500Y-100408767D01*
X172165500Y-100241233D01*
X172132816Y-100076918D01*
X172079188Y-99947451D01*
X172071720Y-99877984D01*
X172079189Y-99852547D01*
X172132816Y-99723082D01*
X172165500Y-99558767D01*
X172165500Y-99391233D01*
X172132816Y-99226918D01*
X172079188Y-99097451D01*
X172071720Y-99027984D01*
X172079189Y-99002547D01*
X172132816Y-98873082D01*
X172165500Y-98708767D01*
X172165500Y-98541233D01*
X172132816Y-98376918D01*
X172090037Y-98273643D01*
X172082569Y-98204175D01*
X172113844Y-98141695D01*
X172140487Y-98121189D01*
X172140165Y-98120707D01*
X172300908Y-98013302D01*
X172433299Y-97880911D01*
X172433302Y-97880908D01*
X172537322Y-97725231D01*
X172608973Y-97552251D01*
X172645500Y-97368616D01*
X172645500Y-97181384D01*
X172608973Y-96997749D01*
X172537322Y-96824769D01*
X172537321Y-96824768D01*
X172537318Y-96824762D01*
X172433302Y-96669092D01*
X172433299Y-96669088D01*
X172300911Y-96536700D01*
X172300907Y-96536697D01*
X172145237Y-96432681D01*
X172145228Y-96432676D01*
X171972251Y-96361027D01*
X171972243Y-96361025D01*
X171788620Y-96324500D01*
X171788616Y-96324500D01*
X170145032Y-96324500D01*
X170077993Y-96304815D01*
X170032238Y-96252011D01*
X170022294Y-96182853D01*
X170051319Y-96119297D01*
X170057351Y-96112819D01*
X170226658Y-95943512D01*
X170628506Y-95541664D01*
X170628511Y-95541660D01*
X170638714Y-95531456D01*
X170638716Y-95531456D01*
X170750520Y-95419652D01*
X170756744Y-95408871D01*
X170815645Y-95306852D01*
X170815646Y-95306848D01*
X170815655Y-95306834D01*
X170829577Y-95282721D01*
X170870500Y-95129993D01*
X170870500Y-94971879D01*
X170870500Y-94892790D01*
X170890185Y-94825751D01*
X170942989Y-94779996D01*
X170951146Y-94776616D01*
X171012331Y-94753796D01*
X171127546Y-94667546D01*
X171213796Y-94552331D01*
X171264091Y-94417483D01*
X171270500Y-94357873D01*
X171270499Y-93262128D01*
X171264091Y-93202517D01*
X171213796Y-93067669D01*
X171204975Y-93055886D01*
X171180558Y-92990423D01*
X171189679Y-92934128D01*
X171232051Y-92831835D01*
X171252424Y-92729416D01*
X171270500Y-92638543D01*
X171270500Y-92441456D01*
X171232052Y-92248170D01*
X171232051Y-92248169D01*
X171232051Y-92248165D01*
X171216062Y-92209563D01*
X171156635Y-92066092D01*
X171156633Y-92066088D01*
X171156632Y-92066086D01*
X171099651Y-91980808D01*
X171095029Y-91973891D01*
X171074151Y-91907214D01*
X171092635Y-91839834D01*
X171095029Y-91836109D01*
X171130416Y-91783149D01*
X171156632Y-91743914D01*
X171232051Y-91561835D01*
X171270500Y-91368541D01*
X171270500Y-91171459D01*
X171270500Y-91170096D01*
X171290185Y-91103057D01*
X171306819Y-91082415D01*
X171363359Y-91025875D01*
X171608506Y-90780728D01*
X171608511Y-90780724D01*
X171618714Y-90770520D01*
X171618716Y-90770520D01*
X171730520Y-90658716D01*
X171784074Y-90565957D01*
X171809577Y-90521785D01*
X171850500Y-90369058D01*
X171850500Y-90210943D01*
X171850500Y-89630943D01*
X171850500Y-89630941D01*
X171850121Y-89629525D01*
X171850121Y-89629526D01*
X171843024Y-89603040D01*
X171809577Y-89478215D01*
X171780639Y-89428095D01*
X171730520Y-89341284D01*
X171618716Y-89229480D01*
X171618715Y-89229479D01*
X171614385Y-89225149D01*
X171614374Y-89225139D01*
X171306819Y-88917584D01*
X171273334Y-88856261D01*
X171270500Y-88829903D01*
X171270500Y-88631456D01*
X171232052Y-88438170D01*
X171232051Y-88438169D01*
X171232051Y-88438165D01*
X171200589Y-88362209D01*
X171156635Y-88256092D01*
X171156628Y-88256079D01*
X171047139Y-88092218D01*
X171047136Y-88092214D01*
X170907785Y-87952863D01*
X170907781Y-87952860D01*
X170743920Y-87843371D01*
X170743907Y-87843364D01*
X170561839Y-87767950D01*
X170561829Y-87767947D01*
X170368543Y-87729500D01*
X170368541Y-87729500D01*
X170171459Y-87729500D01*
X170171457Y-87729500D01*
X169978170Y-87767947D01*
X169978160Y-87767950D01*
X169796089Y-87843366D01*
X169703890Y-87904971D01*
X169637213Y-87925848D01*
X169569833Y-87907363D01*
X169566110Y-87904971D01*
X169539740Y-87887352D01*
X169473914Y-87843368D01*
X169473911Y-87843366D01*
X169473910Y-87843366D01*
X169291839Y-87767950D01*
X169291829Y-87767947D01*
X169098543Y-87729500D01*
X169098541Y-87729500D01*
X168901459Y-87729500D01*
X168901457Y-87729500D01*
X168708170Y-87767947D01*
X168708160Y-87767950D01*
X168526092Y-87843364D01*
X168526079Y-87843371D01*
X168362218Y-87952860D01*
X168362214Y-87952863D01*
X168222863Y-88092214D01*
X168222860Y-88092218D01*
X168113371Y-88256079D01*
X168113364Y-88256092D01*
X168037950Y-88438160D01*
X168037947Y-88438170D01*
X167999500Y-88631456D01*
X167999500Y-88829902D01*
X167990855Y-88859342D01*
X167984332Y-88889329D01*
X167980577Y-88894344D01*
X167979815Y-88896941D01*
X167963181Y-88917583D01*
X167912181Y-88968583D01*
X167850858Y-89002068D01*
X167781166Y-88997084D01*
X167725233Y-88955212D01*
X167700816Y-88889748D01*
X167700500Y-88880902D01*
X167700500Y-86740096D01*
X167720185Y-86673057D01*
X167736815Y-86652419D01*
X168515478Y-85873755D01*
X168576799Y-85840272D01*
X168641473Y-85843506D01*
X168683757Y-85857246D01*
X168893713Y-85890500D01*
X168893714Y-85890500D01*
X169106286Y-85890500D01*
X169106287Y-85890500D01*
X169316243Y-85857246D01*
X169518412Y-85791557D01*
X169707816Y-85695051D01*
X169729789Y-85679086D01*
X169879786Y-85570109D01*
X169879788Y-85570106D01*
X169879792Y-85570104D01*
X170030104Y-85419792D01*
X170030106Y-85419788D01*
X170030109Y-85419786D01*
X170155048Y-85247820D01*
X170155047Y-85247820D01*
X170155051Y-85247816D01*
X170251557Y-85058412D01*
X170317246Y-84856243D01*
X170350500Y-84646287D01*
X170350500Y-84433713D01*
X170317246Y-84223757D01*
X170251557Y-84021588D01*
X170155051Y-83832184D01*
X170155049Y-83832181D01*
X170155048Y-83832179D01*
X170030109Y-83660213D01*
X169916569Y-83546673D01*
X169883084Y-83485350D01*
X169888068Y-83415658D01*
X169929940Y-83359725D01*
X169960915Y-83342810D01*
X170092331Y-83293796D01*
X170207546Y-83207546D01*
X170293796Y-83092331D01*
X170344091Y-82957483D01*
X170350500Y-82897873D01*
X170350499Y-81102128D01*
X170344091Y-81042517D01*
X170293796Y-80907669D01*
X170293795Y-80907668D01*
X170293793Y-80907664D01*
X170207547Y-80792455D01*
X170207544Y-80792452D01*
X170092335Y-80706206D01*
X170092328Y-80706202D01*
X169957482Y-80655908D01*
X169957483Y-80655908D01*
X169897883Y-80649501D01*
X169897881Y-80649500D01*
X169897873Y-80649500D01*
X169897864Y-80649500D01*
X168102129Y-80649500D01*
X168102123Y-80649501D01*
X168042516Y-80655908D01*
X167907671Y-80706202D01*
X167907664Y-80706206D01*
X167792455Y-80792452D01*
X167792452Y-80792455D01*
X167706206Y-80907664D01*
X167706202Y-80907671D01*
X167655908Y-81042517D01*
X167649501Y-81102116D01*
X167649501Y-81102123D01*
X167649500Y-81102135D01*
X167649500Y-81408504D01*
X167629815Y-81475543D01*
X167587501Y-81515890D01*
X167581290Y-81519475D01*
X167581281Y-81519482D01*
X167112181Y-81988583D01*
X167050858Y-82022068D01*
X166981166Y-82017084D01*
X166925233Y-81975212D01*
X166900816Y-81909748D01*
X166900500Y-81900902D01*
X166900500Y-77189060D01*
X166900501Y-77189047D01*
X166900501Y-77020944D01*
X166876689Y-76932077D01*
X166859577Y-76868216D01*
X166790539Y-76748637D01*
X166780524Y-76731290D01*
X166780518Y-76731282D01*
X164922516Y-74873281D01*
X164889031Y-74811958D01*
X164892490Y-74746600D01*
X164910349Y-74692708D01*
X164920500Y-74593345D01*
X164920499Y-73996656D01*
X164910349Y-73897292D01*
X164857003Y-73736303D01*
X164856999Y-73736297D01*
X164856998Y-73736294D01*
X164767970Y-73591959D01*
X164767967Y-73591955D01*
X164648044Y-73472032D01*
X164648040Y-73472029D01*
X164503705Y-73383001D01*
X164503699Y-73382998D01*
X164503697Y-73382997D01*
X164469593Y-73371696D01*
X164342709Y-73329651D01*
X164243346Y-73319500D01*
X163696662Y-73319500D01*
X163696644Y-73319501D01*
X163597292Y-73329650D01*
X163597289Y-73329651D01*
X163436305Y-73382996D01*
X163436294Y-73383001D01*
X163291959Y-73472029D01*
X163291953Y-73472033D01*
X163282324Y-73481663D01*
X163221000Y-73515146D01*
X163151308Y-73510159D01*
X163106965Y-73481660D01*
X163097732Y-73472427D01*
X163097728Y-73472424D01*
X162953492Y-73383457D01*
X162953481Y-73383452D01*
X162792606Y-73330144D01*
X162693322Y-73320000D01*
X162670000Y-73320000D01*
X162670000Y-75269999D01*
X162692803Y-75269999D01*
X162894088Y-75226228D01*
X162953481Y-75206547D01*
X162953492Y-75206542D01*
X163097731Y-75117573D01*
X163106959Y-75108345D01*
X163168279Y-75074856D01*
X163237971Y-75079835D01*
X163282327Y-75108339D01*
X163291955Y-75117967D01*
X163291959Y-75117970D01*
X163436294Y-75206998D01*
X163436297Y-75206999D01*
X163436303Y-75207003D01*
X163590068Y-75257955D01*
X163638745Y-75287980D01*
X165663181Y-77312416D01*
X165696666Y-77373739D01*
X165699500Y-77400097D01*
X165699500Y-87806204D01*
X165679815Y-87873243D01*
X165627011Y-87918998D01*
X165562898Y-87929562D01*
X165513347Y-87924500D01*
X164966662Y-87924500D01*
X164966644Y-87924501D01*
X164867292Y-87934650D01*
X164867289Y-87934651D01*
X164706305Y-87987996D01*
X164706294Y-87988001D01*
X164561959Y-88077029D01*
X164561955Y-88077032D01*
X164552681Y-88086307D01*
X164491358Y-88119792D01*
X164421666Y-88114808D01*
X164377319Y-88086307D01*
X164368044Y-88077032D01*
X164368040Y-88077029D01*
X164223705Y-87988001D01*
X164223699Y-87987998D01*
X164223697Y-87987997D01*
X164117660Y-87952860D01*
X164062709Y-87934651D01*
X163963352Y-87924500D01*
X163963345Y-87924500D01*
X163896519Y-87924500D01*
X163829480Y-87904815D01*
X163808838Y-87888181D01*
X162777480Y-86856823D01*
X162743995Y-86795500D01*
X162747230Y-86730825D01*
X162753553Y-86711368D01*
X162762890Y-86652415D01*
X162790500Y-86478097D01*
X162790500Y-86241902D01*
X162753553Y-86008631D01*
X162709729Y-85873757D01*
X162680568Y-85784008D01*
X162680566Y-85784005D01*
X162680566Y-85784003D01*
X162573342Y-85573566D01*
X162434517Y-85382490D01*
X162267510Y-85215483D01*
X162076433Y-85076657D01*
X162040629Y-85058414D01*
X161865996Y-84969433D01*
X161641368Y-84896446D01*
X161408097Y-84859500D01*
X161408092Y-84859500D01*
X161171908Y-84859500D01*
X161171903Y-84859500D01*
X160938631Y-84896446D01*
X160714003Y-84969433D01*
X160503566Y-85076657D01*
X160394550Y-85155862D01*
X160312490Y-85215483D01*
X160312488Y-85215485D01*
X160312487Y-85215485D01*
X160145485Y-85382487D01*
X160145485Y-85382488D01*
X160145483Y-85382490D01*
X160085862Y-85464550D01*
X160006657Y-85573566D01*
X159899433Y-85784003D01*
X159826446Y-86008631D01*
X159789500Y-86241902D01*
X159789500Y-86478097D01*
X159826446Y-86711368D01*
X159899433Y-86935996D01*
X160006657Y-87146433D01*
X160145483Y-87337510D01*
X160312490Y-87504517D01*
X160503567Y-87643343D01*
X160602991Y-87694002D01*
X160714003Y-87750566D01*
X160714005Y-87750566D01*
X160714008Y-87750568D01*
X160807188Y-87780844D01*
X160938631Y-87823553D01*
X161171903Y-87860500D01*
X161171908Y-87860500D01*
X161408097Y-87860500D01*
X161588572Y-87831915D01*
X161641368Y-87823553D01*
X161660824Y-87817230D01*
X161730661Y-87815234D01*
X161786823Y-87847480D01*
X162703181Y-88763838D01*
X162736666Y-88825161D01*
X162739500Y-88851519D01*
X162739500Y-89198337D01*
X162739501Y-89198355D01*
X162749650Y-89297707D01*
X162749651Y-89297710D01*
X162802996Y-89458694D01*
X162803001Y-89458705D01*
X162892029Y-89603040D01*
X162892032Y-89603044D01*
X162953181Y-89664193D01*
X162986666Y-89725516D01*
X162989500Y-89751874D01*
X162989500Y-90184466D01*
X162969815Y-90251505D01*
X162953181Y-90272147D01*
X162880719Y-90344608D01*
X162880716Y-90344612D01*
X162792455Y-90487704D01*
X162792450Y-90487715D01*
X162766525Y-90565953D01*
X162739564Y-90647315D01*
X162739564Y-90647316D01*
X162739563Y-90647316D01*
X162729500Y-90745818D01*
X162729500Y-91279181D01*
X162739563Y-91377683D01*
X162792450Y-91537284D01*
X162792455Y-91537295D01*
X162880716Y-91680387D01*
X162880719Y-91680391D01*
X162999608Y-91799280D01*
X162999612Y-91799283D01*
X163142704Y-91887544D01*
X163142707Y-91887545D01*
X163142713Y-91887549D01*
X163302315Y-91940436D01*
X163400826Y-91950500D01*
X163400831Y-91950500D01*
X164259169Y-91950500D01*
X164259174Y-91950500D01*
X164357685Y-91940436D01*
X164476498Y-91901064D01*
X164504960Y-91900085D01*
X164533147Y-91896033D01*
X164539425Y-91898900D01*
X164546324Y-91898663D01*
X164570795Y-91913226D01*
X164596703Y-91925058D01*
X164600435Y-91930865D01*
X164606366Y-91934395D01*
X164619079Y-91959877D01*
X164634477Y-91983836D01*
X164635871Y-91993531D01*
X164637559Y-91996915D01*
X164639500Y-92018771D01*
X164639500Y-92131228D01*
X164619815Y-92198267D01*
X164567011Y-92244022D01*
X164497853Y-92253966D01*
X164476496Y-92248934D01*
X164436719Y-92235753D01*
X164357685Y-92209564D01*
X164357683Y-92209563D01*
X164259181Y-92199500D01*
X164259174Y-92199500D01*
X163400826Y-92199500D01*
X163400818Y-92199500D01*
X163302316Y-92209563D01*
X163302315Y-92209564D01*
X163223219Y-92235773D01*
X163142715Y-92262450D01*
X163142704Y-92262455D01*
X162999612Y-92350716D01*
X162999608Y-92350719D01*
X162880719Y-92469608D01*
X162880716Y-92469612D01*
X162792455Y-92612704D01*
X162792447Y-92612721D01*
X162781702Y-92645149D01*
X162741929Y-92702594D01*
X162677413Y-92729416D01*
X162608637Y-92717100D01*
X162557438Y-92669557D01*
X162542380Y-92630335D01*
X162519738Y-92516510D01*
X162519737Y-92516503D01*
X162477268Y-92413972D01*
X162459397Y-92370827D01*
X162459390Y-92370814D01*
X162371789Y-92239711D01*
X162371786Y-92239707D01*
X162260292Y-92128213D01*
X162260288Y-92128210D01*
X162129185Y-92040609D01*
X162129172Y-92040602D01*
X161984814Y-91980808D01*
X161944585Y-91953928D01*
X159236819Y-89246162D01*
X159203334Y-89184839D01*
X159200500Y-89158481D01*
X159200500Y-83341518D01*
X159220185Y-83274479D01*
X159236814Y-83253842D01*
X162992489Y-79498166D01*
X163053810Y-79464683D01*
X163067568Y-79462491D01*
X163087685Y-79460436D01*
X163247287Y-79407549D01*
X163390391Y-79319281D01*
X163509281Y-79200391D01*
X163597549Y-79057287D01*
X163650436Y-78897685D01*
X163660500Y-78799174D01*
X163660500Y-78265826D01*
X163650436Y-78167315D01*
X163597549Y-78007713D01*
X163597545Y-78007707D01*
X163597544Y-78007704D01*
X163509283Y-77864612D01*
X163509280Y-77864608D01*
X163390391Y-77745719D01*
X163390387Y-77745716D01*
X163247295Y-77657455D01*
X163247289Y-77657452D01*
X163247287Y-77657451D01*
X163087685Y-77604564D01*
X163087683Y-77604563D01*
X162989181Y-77594500D01*
X162989174Y-77594500D01*
X162130826Y-77594500D01*
X162130818Y-77594500D01*
X162032316Y-77604563D01*
X162032315Y-77604564D01*
X161953219Y-77630773D01*
X161872715Y-77657450D01*
X161872704Y-77657455D01*
X161729612Y-77745716D01*
X161729608Y-77745719D01*
X161610719Y-77864608D01*
X161610716Y-77864612D01*
X161522455Y-78007704D01*
X161522450Y-78007715D01*
X161504646Y-78061445D01*
X161469564Y-78167315D01*
X161469564Y-78167316D01*
X161469563Y-78167316D01*
X161459500Y-78265818D01*
X161459500Y-78799181D01*
X161469563Y-78897683D01*
X161480872Y-78931809D01*
X161483274Y-79001637D01*
X161450847Y-79058494D01*
X157955887Y-82553454D01*
X157879222Y-82668192D01*
X157826421Y-82795667D01*
X157826420Y-82795671D01*
X157826420Y-82795672D01*
X157809391Y-82881284D01*
X157809391Y-82881285D01*
X157799500Y-82931006D01*
X157799500Y-87780844D01*
X157779815Y-87847883D01*
X157727011Y-87893638D01*
X157657853Y-87903582D01*
X157594297Y-87874557D01*
X157562505Y-87831915D01*
X157533593Y-87767947D01*
X157320021Y-87295418D01*
X156836846Y-86313162D01*
X156321859Y-85347205D01*
X155775610Y-84398576D01*
X155198682Y-83468286D01*
X154591690Y-82557327D01*
X154588923Y-82553454D01*
X153955278Y-81666666D01*
X153290137Y-80797272D01*
X153174477Y-80655909D01*
X152596955Y-79950043D01*
X152174655Y-79466974D01*
X151876499Y-79125913D01*
X151844935Y-79092101D01*
X151129496Y-78325719D01*
X151035691Y-78231599D01*
X150896579Y-78092019D01*
X150863197Y-78030640D01*
X150861208Y-78018556D01*
X150859969Y-78007704D01*
X150707658Y-76674152D01*
X161460001Y-76674152D01*
X161470056Y-76772583D01*
X161522906Y-76932072D01*
X161522908Y-76932077D01*
X161611114Y-77075080D01*
X161729919Y-77193885D01*
X161872922Y-77282091D01*
X161872927Y-77282093D01*
X162032416Y-77334942D01*
X162130855Y-77344999D01*
X162309999Y-77344999D01*
X162810000Y-77344999D01*
X162989136Y-77344999D01*
X162989152Y-77344998D01*
X163087583Y-77334943D01*
X163247072Y-77282093D01*
X163247077Y-77282091D01*
X163390080Y-77193885D01*
X163508885Y-77075080D01*
X163597091Y-76932077D01*
X163597093Y-76932072D01*
X163649942Y-76772583D01*
X163659999Y-76674150D01*
X163660000Y-76674137D01*
X163660000Y-76657500D01*
X162810000Y-76657500D01*
X162810000Y-77344999D01*
X162309999Y-77344999D01*
X162310000Y-77344998D01*
X162310000Y-76657500D01*
X161460001Y-76657500D01*
X161460001Y-76674152D01*
X150707658Y-76674152D01*
X150646747Y-76140849D01*
X161460000Y-76140849D01*
X161460000Y-76157500D01*
X162310000Y-76157500D01*
X162310000Y-75498309D01*
X162810000Y-75498309D01*
X162810000Y-76157500D01*
X163659999Y-76157500D01*
X163659999Y-76140864D01*
X163659998Y-76140847D01*
X163649943Y-76042416D01*
X163597093Y-75882927D01*
X163597091Y-75882922D01*
X163508885Y-75739919D01*
X163390080Y-75621114D01*
X163247077Y-75532908D01*
X163247072Y-75532906D01*
X163087583Y-75480057D01*
X162989150Y-75470000D01*
X162940185Y-75470000D01*
X162810000Y-75498309D01*
X162310000Y-75498309D01*
X162310000Y-75470000D01*
X162269360Y-75470000D01*
X162202321Y-75450315D01*
X162156566Y-75397511D01*
X162146622Y-75328353D01*
X162170000Y-75277162D01*
X162170000Y-74545000D01*
X161470001Y-74545000D01*
X161470001Y-74593322D01*
X161480144Y-74692607D01*
X161533452Y-74853481D01*
X161533457Y-74853492D01*
X161622424Y-74997728D01*
X161622427Y-74997732D01*
X161742267Y-75117572D01*
X161742271Y-75117575D01*
X161886507Y-75206542D01*
X161886518Y-75206547D01*
X162016952Y-75249769D01*
X162074397Y-75289542D01*
X162101220Y-75354058D01*
X162088905Y-75422833D01*
X162041362Y-75474033D01*
X162016952Y-75485181D01*
X161872927Y-75532906D01*
X161872922Y-75532908D01*
X161729919Y-75621114D01*
X161611114Y-75739919D01*
X161522908Y-75882922D01*
X161522906Y-75882927D01*
X161470057Y-76042416D01*
X161460000Y-76140849D01*
X150646747Y-76140849D01*
X150401852Y-73996677D01*
X161470000Y-73996677D01*
X161470000Y-74045000D01*
X162170000Y-74045000D01*
X162170000Y-73319999D01*
X162146693Y-73320000D01*
X162146674Y-73320001D01*
X162047392Y-73330144D01*
X161886518Y-73383452D01*
X161886507Y-73383457D01*
X161742271Y-73472424D01*
X161742267Y-73472427D01*
X161622427Y-73592267D01*
X161622424Y-73592271D01*
X161533457Y-73736507D01*
X161533452Y-73736518D01*
X161480144Y-73897393D01*
X161470000Y-73996677D01*
X150401852Y-73996677D01*
X150275768Y-72892752D01*
X150287718Y-72823914D01*
X150300329Y-72803539D01*
X153971722Y-67984837D01*
X154028007Y-67943443D01*
X154064469Y-67936128D01*
X161366074Y-67589362D01*
X161433971Y-67605844D01*
G37*
%TD.AperFunction*%
%TD*%
M02*
